<svg xmlns="http://www.w3.org/2000/svg" viewBox="0 0 193.68 128.14"><rect y="121.3" width="193.68" height="2.61" fill="#e5e5e5"/><path d="M170.73,123.46h-39V87.28a2.87,2.87,0,0,1,2.86-2.85h33.29a2.86,2.86,0,0,1,2.85,2.85Z" transform="translate(-2.97 -2.3)" fill="#012840"/><path d="M166.83,86.71H135.59a1.67,1.67,0,0,0-1.66,1.66h0V104h34.55V88.33a1.66,1.66,0,0,0-1.66-1.66h0" transform="translate(-2.97 -2.3)" fill="#e5e5e5"/><rect x="130.96" y="103.88" width="34.56" height="15.05" fill="#e5e5e5"/><path d="M142.1,102.83H137v-15h5.09Zm-4.88-.21h4.67V88h-4.67Z" transform="translate(-2.97 -2.3)" fill="#012840"/><path d="M140.11,98.9H139a.74.74,0,0,1-.74-.73V92.45a.73.73,0,0,1,.73-.73h1.11a.73.73,0,0,1,.73.73v5.72a.72.72,0,0,1-.73.73m-1.1-7a.53.53,0,0,0-.52.52h0v5.72a.51.51,0,0,0,.51.51h1.11a.51.51,0,0,0,.51-.51V92.42a.51.51,0,0,0-.5-.52H139Z" transform="translate(-2.97 -2.3)" fill="#012840"/><path d="M142.1,91H137v-1.4h5.09Zm-4.88-.22h4.67v-1h-4.67Z" transform="translate(-2.97 -2.3)" fill="#012840"/><path d="M142.1,101H137v-1.4h5.09Zm-4.88-.21h4.67v-1h-4.67Z" transform="translate(-2.97 -2.3)" fill="#012840"/><path d="M149,102.83h-5.1V89.58H149Zm-4.88-.21h4.66V89.8h-4.66Z" transform="translate(-2.97 -2.3)" fill="#012840"/><path d="M147,99.38h-1.1a.73.73,0,0,1-.73-.73h0V93.77a.73.73,0,0,1,.73-.73H147a.73.73,0,0,1,.73.73v4.87a.73.73,0,0,1-.73.74m-1.1-6.12a.52.52,0,0,0-.52.5h0v4.87a.52.52,0,0,0,.52.52H147a.51.51,0,0,0,.51-.51h0V93.77a.51.51,0,0,0-.51-.51Z" transform="translate(-2.97 -2.3)" fill="#012840"/><path d="M149,92.42h-5.1V91.16H149Zm-4.88-.22h4.66v-.82h-4.66Z" transform="translate(-2.97 -2.3)" fill="#012840"/><path d="M149,101.25h-5.1V100H149Zm-4.88-.22h4.66v-.82h-4.66Z" transform="translate(-2.97 -2.3)" fill="#012840"/><path d="M143,120h-2.57a1.19,1.19,0,0,1-1.19-1.19h0v-2.56a1.19,1.19,0,0,1,1.19-1.19H143Zm-2.57-4.73a1,1,0,0,0-1,1v2.56a1,1,0,0,0,1,1h2.35v-4.52Z" transform="translate(-2.97 -2.3)" fill="#012840"/><path d="M158.55,120H143.87v-4.94h14.68Zm-14.46-.21h14.24v-4.52H144.09Z" transform="translate(-2.97 -2.3)" fill="#012840"/><path d="M162,120h-2.52v-4.94h2.57a1.19,1.19,0,0,1,1.2,1.18h0v2.56a1.19,1.19,0,0,1-1.19,1.19h0m-2.35-.21h2.35a1,1,0,0,0,1-1v-2.56a1,1,0,0,0-1-1H159.7Z" transform="translate(-2.97 -2.3)" fill="#012840"/><path d="M147.93,118.44h6.55a.86.86,0,0,0,.86-.86v0a.87.87,0,0,0-.86-.82h-6.56a.88.88,0,0,0-.86.87v0a.87.87,0,0,0,.86.86" transform="translate(-2.97 -2.3)" fill="#012840"/><path d="M143.77,109.86v3a.89.89,0,0,0,.89.89H146V109h-1.34a.89.89,0,0,0-.89.87h0" transform="translate(-2.97 -2.3)" fill="#012840"/><path d="M157.77,109H146.88v4.73h10.89a.87.87,0,0,0,.88-.88h0v-3a.87.87,0,0,0-.86-.88h0m-1.83,3.49a1.13,1.13,0,0,1-1.12-1.14,1.13,1.13,0,0,1,2.26,0,1.12,1.12,0,0,1-1.13,1.13h0" transform="translate(-2.97 -2.3)" fill="#012840"/><path d="M158.2,93.4h2.52v-.69a.67.67,0,0,0-.67-.67h-3.7a.67.67,0,0,0-.67.67v.74Z" transform="translate(-2.97 -2.3)" fill="#012840"/><path d="M160.55,102.83h-4.7a1.29,1.29,0,0,1-1.29-1.12l-.86-6.31a1.86,1.86,0,0,1,1.6-2.09l.25,0h5.31a1.87,1.87,0,0,1,1.86,1.87,1.94,1.94,0,0,1,0,.24l-.86,6.31a1.29,1.29,0,0,1-1.29,1.12m-5-9.32a1.69,1.69,0,0,0-1.24.56,1.66,1.66,0,0,0-.39,1.3l.86,6.31a1.09,1.09,0,0,0,1.07.94h4.7a1.11,1.11,0,0,0,1.08-.94l.85-6.31a1.59,1.59,0,0,0-.39-1.3,1.69,1.69,0,0,0-1.23-.56Z" transform="translate(-2.97 -2.3)" fill="#012840"/><path d="M158.77,100.29a2.14,2.14,0,0,1-2-2.28,2.16,2.16,0,0,1,2-2h2.14v2.13a2.12,2.12,0,0,1-2.12,2.14h0Zm2-4.15h-2a2,2,0,0,0,0,4h0a2,2,0,0,0,2-2Z" transform="translate(-2.97 -2.3)" fill="#012840"/><path d="M156.7,100.28a1.19,1.19,0,0,1-1.2-1.18h0v-1.2h1.2a1.2,1.2,0,0,1,0,2.39M155.63,98v1.07A1.07,1.07,0,1,0,156.7,98Z" transform="translate(-2.97 -2.3)" fill="#012840"/><path d="M163,74.35a5.31,5.31,0,0,1-.6-.81,5.17,5.17,0,0,1-.39-.94.39.39,0,0,0-.48-.26l-.08,0-.58.33a4.87,4.87,0,0,0-2.33-1v-.24a2.68,2.68,0,0,0-2.68-2.68h-5.38a1,1,0,0,0-1,1v1.93h-1.26V69.56a.48.48,0,0,0-.47-.47h-1.9a.49.49,0,0,0-.48-.41h-2.89a1.31,1.31,0,1,0,0,2.62h2.88a.48.48,0,0,0,.48-.41h.64v.82a1.41,1.41,0,0,0-1.29,1.4v2.28h-1.92v-.61a.06.06,0,0,0,0-.06l-2.44-1.14h-.19a1.32,1.32,0,0,0-1.32,1.32h0v5.4a1.32,1.32,0,0,0,1.32,1.32h.19l2.44-1.13a.08.08,0,0,0,0-.07v-.61h1.92v2.28a1.41,1.41,0,0,0,1.41,1.41h1.5v.41a.52.52,0,0,0,.51.53h1.55c.29,0,.52-.1.52-.53a.47.47,0,0,1,.34-.41h4.46a.45.45,0,0,1,.33.41c0,.43.24.53.52.53h1.54a.52.52,0,0,0,.52-.52h0V83.5a4.6,4.6,0,0,0,4.42-4.6V76.56a5.05,5.05,0,0,0-.24-1.54l.06.12L163,75a.38.38,0,0,0,.14-.53l-.05-.07m-22.26,7.14h-.1a1.19,1.19,0,0,1-1.2-1.18h0V74.9a1.21,1.21,0,0,1,1.16-1.19h.1Zm2.43-1.11-2.3,1.07V73.71l2.3,1.07Zm6.43-10.52a.91.91,0,0,1,.9-.9h5.36a2.55,2.55,0,0,1,2.55,2.54v.21H156.7a2.63,2.63,0,0,0-.78-1.83A2.67,2.67,0,0,0,154,69.1h-1.65a1,1,0,0,0-1,1v1.61h-1.74Zm6.89,1.85h-5.05V70.13a.91.91,0,0,1,.9-.9H154a2.57,2.57,0,0,1,1.8.74,2.51,2.51,0,0,1,.74,1.73m-10.62-1V69.23h1.83a.33.33,0,0,1,.33.33h0v2.15h-1.41v-.88a.07.07,0,0,0-.07-.07h0Zm16.73,7.89a4.72,4.72,0,0,1-4.72,4.73h-6.87a.49.49,0,0,1-.49-.49h0a6.64,6.64,0,0,1,2-4.79h.1l.38-.11h.19a1,1,0,0,0,.27-.39v0h0v-.07a6.83,6.83,0,0,1,3.49-1h4.89a.49.49,0,0,1,.49.49h0Zm-10.71-.5L150.4,73l1.08-.29a.89.89,0,0,1,1.11.58h0l1,3.39a.9.9,0,0,1,0,.4h0v.12h0v.07a.73.73,0,0,1-.22.27h-.16l-.44.13Zm10.7-1.88a.62.62,0,0,0-.48-.22h-4.89a6.88,6.88,0,0,0-3.47,1,1.26,1.26,0,0,0,0-.33l-1-3.38a1,1,0,0,0-.5-.61,1,1,0,0,0-.78-.08l-1.15.34a.07.07,0,0,0,0,.09l.17.68-2.26.68a1.73,1.73,0,0,0-1.14,2.14l.15.51a1.71,1.71,0,0,0,2.13,1.15h0l2.26-.68.22.72h.06l.39-.12a6.83,6.83,0,0,0-1.88,4.71.7.7,0,0,0,.24.49h-4A1.27,1.27,0,0,1,145.38,82V73a1.29,1.29,0,0,1,1.27-1.28h11.28a4.74,4.74,0,0,1,4.71,4.43" transform="translate(-2.97 -2.3)" fill="#012840"/><path d="M146.39,80.85v1a.06.06,0,0,0,.06.06h.3V82h.6V81h-.23v-.19a.07.07,0,0,0-.07-.07h-.57a.09.09,0,0,0-.06.07m.13.07H147v.89h-.53Z" transform="translate(-2.97 -2.3)" fill="#012840"/><path d="M147.48,81.94h.3v.13h.59v-1h-.23v-.19a.07.07,0,0,0-.06-.07h-.6a.07.07,0,0,0-.07.07h0v1a.07.07,0,0,0,.07.06m.07-1H148v.89h-.46Z" transform="translate(-2.97 -2.3)" fill="#012840"/><path d="M148.48,81.94h.3v.13h.6v-1h-.23v-.19a.07.07,0,0,0-.07-.07h-.6a.09.09,0,0,0-.06.07v1a.06.06,0,0,0,.06.06m.07-1H149v.89h-.46Z" transform="translate(-2.97 -2.3)" fill="#012840"/><rect x="67.57" y="89.22" width="2.27" height="27.62" fill="#012840"/><polygon points="59.53 122.61 77.87 122.61 69.83 116.85 67.57 116.85 59.53 122.61" fill="#012840"/><path d="M74.08,38.25h-32a2.55,2.55,0,0,0-2,1.27,3.43,3.43,0,0,0-.53,2.62L52.28,83.62a7.44,7.44,0,0,0,2.39,3.49,6.59,6.59,0,0,0,3.86,1.21h40c.12,0,.75-.07.75-1.12h0l-.34-1-4.5-13.82a5.52,5.52,0,0,0-2.64-3.15L87.48,67a7.62,7.62,0,0,1-3.73-4.55l-7-23.31-.34.13s-.45-1-2.34-1" transform="translate(-2.97 -2.3)" fill="#012840"/><path d="M98.48,89.05H58.41a7.2,7.2,0,0,1-4.18-1.34,8.21,8.21,0,0,1-2.65-3.87L38.83,42.34a4.16,4.16,0,0,1,.65-3.21,3.21,3.21,0,0,1,2.63-1.6h32a3.71,3.71,0,0,1,2.41.71l-.2-.67a2.3,2.3,0,0,0-1-1.27,3.41,3.41,0,0,0-1.58-.3H38.85a2.89,2.89,0,0,0-2.52,1.47,4.07,4.07,0,0,0-.59,3.2L49.48,86.21a8.38,8.38,0,0,0,2.7,3.94,7.39,7.39,0,0,0,4.3,1.38H97.55c.84,0,1.45-1.35,1.68-2.18v-.14a3.35,3.35,0,0,0,.11-.55,1.42,1.42,0,0,1-.94.39Z" transform="translate(-2.97 -2.3)" fill="#012840"/><path d="M108.68,129.48a14,14,0,0,1-9.22.34c-5-1.58-5.91-2.22-6.8-4.68S91,120.83,91,120.83l5.3-2.2a15,15,0,0,0,5.21,5.47c4,2.67,7.2,4.44,7.2,4.44s1.08.55,0,.94" transform="translate(-2.97 -2.3)" fill="#012840"/><path d="M103.8,117.16a21,21,0,0,0-.16,3.36,3.12,3.12,0,0,0,2.87,3.35h.21c1.79,0,12.06.36,13.11,0,1.44-.49-.56-1.34-1.77-2-1.46-.79-3.68-1.71-6.18-2.86s-2.12-1.87-2.12-1.87Z" transform="translate(-2.97 -2.3)" fill="#012840"/><path d="M88.7,35.12a12.56,12.56,0,0,0-7.86-7.41,129.72,129.72,0,0,0-16.73-.16C53,28,51.79,38,51.79,38L51,59.53h3.81l.79,16.82s9.66-.28,14.93-2.37S81,72.42,83.1,74.35a7.47,7.47,0,0,1,.62.64l.14-6-.27-19.06,4.72,5.67,4.33-8.7A86.17,86.17,0,0,0,88.7,35.12" transform="translate(-2.97 -2.3)" fill="#e5e5e5"/><path d="M55.48,76.5l-.81-16.79H50.85l.8-21.7a13.18,13.18,0,0,1,2-5.12c1.56-2.36,4.64-5.22,10.44-5.45a133.73,133.73,0,0,1,16.75.16h0a12.78,12.78,0,0,1,8,7.5,87.48,87.48,0,0,1,4,11.79V47l-4.43,8.89-4.59-5.52L84.07,69l-.14,6.38-.25-.28a5.26,5.26,0,0,0-.61-.64c-2-1.77-7-2.49-12.41-.33-5.24,2.07-14.89,2.37-15,2.37ZM51.15,59.38H55l.79,16.82c1.22,0,9.9-.44,14.74-2.35,5.56-2.2,10.7-1.44,12.72.39a4.68,4.68,0,0,1,.39.38L83.71,69l-.23-19.46,4.84,5.8,4.16-8.45a86,86,0,0,0-3.93-11.7,12.54,12.54,0,0,0-7.75-7.33,132.78,132.78,0,0,0-16.69-.14c-5.67.23-8.68,3-10.2,5.31a13.19,13.19,0,0,0-2,5Z" transform="translate(-2.97 -2.3)" fill="#012840"/><rect x="68.88" y="27.95" width="0.22" height="21.29" fill="#012840"/><path d="M76.48,16.33l.6-3.73v-5a5.16,5.16,0,0,0-5.16-5.16h0A5.16,5.16,0,0,0,66.76,7.6h0v5l.6,3.73" transform="translate(-2.97 -2.3)" fill="#fff"/><path d="M76.62,16.34h-.21L77,12.62v-5a5.06,5.06,0,0,0-5-5h0a5.07,5.07,0,0,0-5,5.05v5l.53,3.72h-.22l-.6-3.74v-5A5.28,5.28,0,0,1,71.93,2.3h0A5.28,5.28,0,0,1,77.2,7.57v5Z" transform="translate(-2.97 -2.3)" fill="#012840"/><path d="M76.53,15.64s.29,8.41.44,9.62a10.5,10.5,0,0,0,.44,2,6.77,6.77,0,0,1-5.5,3h0a6.78,6.78,0,0,1-5.5-3,9.79,9.79,0,0,0,.44-2c.15-1.21.44-9.62.44-9.62" transform="translate(-2.97 -2.3)" fill="#fff"/><path d="M72,30.36h0a6.91,6.91,0,0,1-5.55-3h0a11.33,11.33,0,0,0,.44-2c.14-1.18.43-9.52.43-9.6h.21c0,.35-.29,8.43-.44,9.63a10.48,10.48,0,0,1-.43,2,6.43,6.43,0,0,0,10.72,0,11.31,11.31,0,0,1-.43-2c-.15-1.2-.42-9.28-.44-9.63h.22c0,.08.29,8.42.44,9.6a11.31,11.31,0,0,0,.43,2h0A6.91,6.91,0,0,1,72,30.36Z" transform="translate(-2.97 -2.3)" fill="#012840"/><path d="M72,26a5.71,5.71,0,0,0,2.19-.51c1.34-.26,2.44-.4,2.45-.4a1.06,1.06,0,0,0,.86-1.23.74.74,0,0,0,0-.14l-.59-4-.34-3.39L77,13,75.64,16.3h0a3.57,3.57,0,0,1-2.12-1.11L71.9,15l-1.58.22A3.57,3.57,0,0,1,68.2,16.3h0L66.82,13l.54,3.33L67,19.71l-.56,4a1.07,1.07,0,0,0,.68,1.34l.14,0s1.11.14,2.45.4a5.75,5.75,0,0,0,2.19.51Z" transform="translate(-2.97 -2.3)" fill="#012840"/><path d="M72,26.06h0a3.86,3.86,0,0,1-1.8-.35,3,3,0,0,0-.45-.15c-1.17-.23-2.16-.36-2.43-.4a1.09,1.09,0,0,1-.73-.43,1.4,1.4,0,0,1-.19-1l.58-4,.31-3.41L66.7,13a.14.14,0,0,1,.08-.13.11.11,0,0,1,.13.07l1.35,3.23a3.46,3.46,0,0,0,2-1.07h.07l1.58-.22h0l1.61.22h.07a3.46,3.46,0,0,0,2,1.07l1.35-3.23a.13.13,0,0,1,.15-.06.11.11,0,0,1,.06.12l-.54,3.31.31,3.42.56,4a1.32,1.32,0,0,1-.19,1.06,1.06,1.06,0,0,1-.71.43,22.32,22.32,0,0,0-2.45.4,3.81,3.81,0,0,0-.44.15,4,4,0,0,1-1.77.35M67.07,13.88l.41,2.42h0l-.31,3.43-.61,4a1.18,1.18,0,0,0,.16.9.78.78,0,0,0,.57.34,24.23,24.23,0,0,1,2.45.41,2.81,2.81,0,0,1,.49.16,3.75,3.75,0,0,0,1.68.34h0a3.75,3.75,0,0,0,1.68-.34,2.81,2.81,0,0,1,.49-.16c1.18-.23,2.17-.37,2.44-.41a.79.79,0,0,0,.59-.34,1.19,1.19,0,0,0,.15-.9l-.59-3.94-.3-3.43h0l.39-2.42-1,2.46a.08.08,0,0,1-.1.07h0a3.63,3.63,0,0,1-2.18-1.16l-1.57-.21-1.53.21a3.66,3.66,0,0,1-2.15,1.12h0s-.08,0-.1-.07Z" transform="translate(-2.97 -2.3)" fill="#012840"/><path d="M71.91,19.8h-.84l-.3.79a.56.56,0,0,1-.53.37h-.36a1.12,1.12,0,0,1-1.1-.94l-.24-2a13.42,13.42,0,0,1,3.39-1.3A13.14,13.14,0,0,1,75.32,18l-.24,2A1.12,1.12,0,0,1,74,21h-.36a.58.58,0,0,1-.53-.37l-.3-.79Z" transform="translate(-2.97 -2.3)" fill="#fff"/><path d="M74,21.07h-.36a.67.67,0,0,1-.63-.44l-.27-.72H71.14l-.27.72a.67.67,0,0,1-.63.44h-.36a1.21,1.21,0,0,1-1.21-1l-.23-2a.1.1,0,0,1,0-.11,13.5,13.5,0,0,1,3.44-1.25h0A13.14,13.14,0,0,1,75.37,18a.11.11,0,0,1,.06.11l-.24,2a1.21,1.21,0,0,1-1.21,1m-2.91-1.42h1.72a.1.1,0,0,1,.1.07l.3.8a.46.46,0,0,0,.43.29H74A1,1,0,0,0,75,20l.23-1.87a12.22,12.22,0,0,0-3.27-1.25h0a12.48,12.48,0,0,0-3.27,1.25L68.9,20a1,1,0,0,0,1,.84h.36a.46.46,0,0,0,.43-.29l.3-.8a.12.12,0,0,1,.1-.07" transform="translate(-2.97 -2.3)" fill="#012840"/><path d="M67.33,15.71c-1.29-.2-1.85-4.07-1.85-4.58,0-1,.45-1.55,1.27-1.55v.21c-.7,0-1.06.45-1.06,1.34s.67,4.21,1.68,4.4Z" transform="translate(-2.97 -2.3)" fill="#012840"/><path d="M69.72,11a.66.66,0,0,1-1.32,0,.66.66,0,1,1,1.32,0h0" transform="translate(-2.97 -2.3)" fill="#012840"/><path d="M72,14.59a1,1,0,0,1-1-.72l.2-.07a.83.83,0,0,0,1,.54.82.82,0,0,0,.53-.54l.2.07a1,1,0,0,1-1,.72" transform="translate(-2.97 -2.3)" fill="#012840"/><path d="M68,13.71c-1.3,0-2.22-.11-2.77-.67a2.2,2.2,0,0,1-.55-1.65V9.23a.86.86,0,0,1,.85-.84h5.1a.85.85,0,0,1,.84.84v2.1c0,2.17-1.54,2.36-3.39,2.36H68M65.48,8.61a.64.64,0,0,0-.63.62v2.14a2,2,0,0,0,.48,1.5c.51.51,1.42.61,2.7.6,2.1,0,3.17-.34,3.17-2.14V9.23a.62.62,0,0,0-.62-.62h-5.1Z" transform="translate(-2.97 -2.3)" fill="#012840"/><path d="M72.39,19.13h-.91a.28.28,0,1,1,0-.56h1a.28.28,0,0,1,0,.56" transform="translate(-2.97 -2.3)" fill="#012840"/><path d="M72.48,18.15h-.72a1.81,1.81,0,0,1-1.2-.25l.13-.17a1.58,1.58,0,0,0,1.06.2h.49a1.5,1.5,0,0,0,1-.17l.13.18a1.4,1.4,0,0,1-.85.21" transform="translate(-2.97 -2.3)" fill="#012840"/><path d="M76.53,15.71v-.22c1-.19,1.68-3.61,1.68-4.4s-.36-1.34-1.06-1.34V9.54c.82,0,1.27.55,1.27,1.55,0,.51-.56,4.38-1.85,4.62" transform="translate(-2.97 -2.3)" fill="#012840"/><path d="M74.14,11a.66.66,0,1,0,.66-.66.66.66,0,0,0-.66.66h0" transform="translate(-2.97 -2.3)" fill="#012840"/><path d="M75.91,13.71h-.08c-1.85,0-3.39-.19-3.39-2.36V9.25a.86.86,0,0,1,.85-.84h5.09a.85.85,0,0,1,.85.84v2.14A2.2,2.2,0,0,1,78.68,13c-.55.56-1.47.67-2.77.67M73.29,8.63a.64.64,0,0,0-.63.62v2.1c0,1.8,1.07,2.14,3.18,2.14h.07a3.68,3.68,0,0,0,2.62-.6,2,2,0,0,0,.48-1.5V9.23a.63.63,0,0,0-.63-.62Z" transform="translate(-2.97 -2.3)" fill="#012840"/><path d="M79.12,9.46h.36a.25.25,0,0,1,.25.25v1a.26.26,0,0,1-.25.26H79.1Z" transform="translate(-2.97 -2.3)" fill="#fff"/><path d="M79.48,11.11H79V9.35h.49a.36.36,0,0,1,.36.36h0v1a.37.37,0,0,1-.36.37m-.27-.22h.27a.14.14,0,0,0,.15-.15h0v-1a.15.15,0,0,0-.15-.15h-.27Z" transform="translate(-2.97 -2.3)" fill="#012840"/><rect x="68.34" y="7.75" width="1.24" height="0.22" fill="#012840"/><path d="M80,31.17l.8-2.84a.85.85,0,0,0-.3-.89l-1.7-1.31A.85.85,0,0,0,78.3,26h-.56a.84.84,0,0,0-.8.59l-1,3.54a.84.84,0,0,0,.6,1l2.52.62a.83.83,0,0,0,1-.59" transform="translate(-2.97 -2.3)" fill="#fff"/><path d="M79.21,31.89H79l-2.5-.64a.94.94,0,0,1-.6-.45,1,1,0,0,1-.08-.74l1-3.54a1,1,0,0,1,.91-.67h.56a1,1,0,0,1,.57.19l1.71,1.31a.92.92,0,0,1,.33,1l-.79,2.85a.93.93,0,0,1-.91.69m-1.47-5.83a.75.75,0,0,0-.7.53l-1,3.54a.69.69,0,0,0,.06.56.73.73,0,0,0,.46.35l2.52.61a.71.71,0,0,0,.87-.51l.79-2.84a.75.75,0,0,0-.25-.78l-1.71-1.31a.83.83,0,0,0-.44-.15Z" transform="translate(-2.97 -2.3)" fill="#012840"/><path d="M76,28,72,30.2a.33.33,0,0,0-.13.16l-.2.58a.3.3,0,0,0,.17.38.27.27,0,0,0,.25,0,4.26,4.26,0,0,1,1.13-.41,6.81,6.81,0,0,1,2.11-.09.29.29,0,0,0,.32-.2l.7-2.24A.28.28,0,0,0,76.2,28,.27.27,0,0,0,76,28" transform="translate(-2.97 -2.3)" fill="#fff"/><path d="M72,31.44a.39.39,0,0,1-.25-.1.39.39,0,0,1-.12-.44l.2-.58a.37.37,0,0,1,.18-.21l3.93-2.2a.41.41,0,0,1,.55.15.4.4,0,0,1,0,.32l-.7,2.24a.41.41,0,0,1-.45.28,6.49,6.49,0,0,0-2.06.09,4,4,0,0,0-1.11.39.36.36,0,0,1-.2.06m4.14-3.36H76l-3.93,2.2a.22.22,0,0,0-.09.1l-.2.57a.18.18,0,0,0,.06.2.15.15,0,0,0,.2,0,4.4,4.4,0,0,1,1.17-.41,6.76,6.76,0,0,1,2.15-.1.17.17,0,0,0,.2-.12l.7-2.25a.18.18,0,0,0-.06-.19h-.11" transform="translate(-2.97 -2.3)" fill="#012840"/><path d="M63.88,31.12l-.77-2.76a.91.91,0,0,1,.37-.95l1.65-1.27a.91.91,0,0,1,.55-.18h.5a.89.89,0,0,1,.85.64L68,30a.9.9,0,0,1-.6,1.11h-.05l-2.4.59a.9.9,0,0,1-1.07-.63" transform="translate(-2.97 -2.3)" fill="#fff"/><path d="M64.74,31.88a1,1,0,0,1-1-.73L63,28.39a1,1,0,0,1,.36-1.06L65,26.05a1,1,0,0,1,.61-.2h.5a1,1,0,0,1,1,.72l1,3.44a1,1,0,0,1-.68,1.24h0l-2.4.59h-.24M64,31.06a.79.79,0,0,0,1,.56h0l2.4-.59a.74.74,0,0,0,.49-.37.76.76,0,0,0,.07-.61l-1-3.44a.8.8,0,0,0-.75-.57h-.5a.78.78,0,0,0-.48.17l-1.73,1.3a.81.81,0,0,0-.28.83Z" transform="translate(-2.97 -2.3)" fill="#012840"/><path d="M68.12,28.11l3.56,2a.37.37,0,0,1,.17.46l-.1.27a.37.37,0,0,1-.46.24c-.21-.07-.55-.15-1.11-.27a4.11,4.11,0,0,0-1.56-.1.38.38,0,0,1-.44-.26l-.6-1.92a.37.37,0,0,1,.54-.44" transform="translate(-2.97 -2.3)" fill="#fff"/><path d="M71.4,31.19h-.14c-.25-.07-.62-.16-1.11-.26a4,4,0,0,0-1.51-.08.49.49,0,0,1-.57-.33l-.59-1.93a.49.49,0,0,1,.33-.61.5.5,0,0,1,.38,0l3.55,2a.48.48,0,0,1,.22.59l-.1.28a.44.44,0,0,1-.45.32m-2.28-.62a5.5,5.5,0,0,1,1.08.13c.49.1.87.19,1.12.26a.27.27,0,0,0,.33-.16l.1-.28a.29.29,0,0,0-.12-.33l-3.56-2a.27.27,0,0,0-.36.11.24.24,0,0,0,0,.2l.6,1.92a.27.27,0,0,0,.31.18,2.35,2.35,0,0,1,.53,0" transform="translate(-2.97 -2.3)" fill="#012840"/><polygon points="76.3 57.26 76.01 57.24 76.63 48.88 58.93 50.05 58.93 41.88 59.22 41.88 59.22 49.74 76.94 48.56 76.3 57.26" fill="#012840"/><rect x="80.48" y="39.55" width="0.29" height="8.08" fill="#012840"/><path d="M79.55,53.71s2.12-1.89,3.4-1.48,2.51,2.82,2.64,4.32c.06.67.27,1.94-.33,2.42-.36.28-1.62.23-1.84-.48a2.07,2.07,0,0,1-2.09,1,3.71,3.71,0,0,1-2.14-1Z" transform="translate(-2.97 -2.3)" fill="#fff"/><path d="M81.33,59.71a3.78,3.78,0,0,1-2.21-1h0l.36-5h0c.09-.08,2.18-1.93,3.51-1.5s2.58,3,2.71,4.41v.23c.08.73.19,1.82-.39,2.28a1.57,1.57,0,0,1-1.29.11,1.1,1.1,0,0,1-.64-.46,2.1,2.1,0,0,1-2.07.95m-2-1.15a3.51,3.51,0,0,0,2,.93,2,2,0,0,0,2-1l.13-.16.06.19a.8.8,0,0,0,.58.49A1.35,1.35,0,0,0,85.16,59c.49-.39.39-1.41.32-2.08v-.24c-.14-1.54-1.37-3.83-2.56-4.22s-3,1.19-3.26,1.42Z" transform="translate(-2.97 -2.3)" fill="#012840"/><path d="M83.28,58.56a3.71,3.71,0,0,1,0-2.46l.27.12a3.34,3.34,0,0,0,.06,2.25Z" transform="translate(-2.97 -2.3)" fill="#012840"/><path d="M94.93,99.91C92.79,87.78,87,74.71,87,74.71s-1.74-4.42-3.86-6.34S75.86,65.92,70.58,68s-15,8.35-15,8.35-.79,4.47,1,7S62,89,66.11,87.88a14.65,14.65,0,0,0,6.71-4.64l-.77-5.53h.43l1,6.56c.71,2.59,2.55,8.93,5.78,17.29A93,93,0,0,0,90,121.27l6.9-2.86s.17-6.34-2-18.46" transform="translate(-2.97 -2.3)" fill="#67c187"/><path d="M113.76,75c-2.44-5.59-8-6.7-12.42-6.7S85,70.65,85,70.65h0a27.3,27.3,0,0,1,2,4.06s1.83,4.13,3.81,9.91L98.43,83c2.93-.64,3.94.25,3.94,2.37s-.1,31.84-.1,31.84h9s1-5.49,3.19-17.22,1.71-19.38-.72-25" transform="translate(-2.97 -2.3)" fill="#67c187"/><path d="M113.82,59.4H86.42L93.8,44.57a4.48,4.48,0,0,1,4-2.46h20.78a2.39,2.39,0,0,1,2.15,3.46Z" transform="translate(-2.97 -2.3)" fill="#e5e5e5"/><path d="M113.91,59.54H86.19l7.48-15A4.56,4.56,0,0,1,97.78,42h20.78a2.55,2.55,0,0,1,2.55,2.54,2.47,2.47,0,0,1-.27,1.13Zm-27.26-.29h27.08l6.85-13.74a2.24,2.24,0,0,0-1-3,2.34,2.34,0,0,0-1-.24H97.78a4.27,4.27,0,0,0-3.85,2.38Z" transform="translate(-2.97 -2.3)" fill="#012840"/><path d="M105.48,54.6h-3.31V51.28a3.32,3.32,0,1,1,3.32,3.32h0" transform="translate(-2.97 -2.3)" fill="#012840"/><path d="M64.74,9.46h-.38a.25.25,0,0,0-.25.25v1a.26.26,0,0,0,.25.26h.38Z" transform="translate(-2.97 -2.3)" fill="#fff"/><path d="M64.85,11.11h-.49a.37.37,0,0,1-.36-.37v-1a.36.36,0,0,1,.36-.36h.49Zm-.49-1.55a.15.15,0,0,0-.15.15h0v1a.15.15,0,0,0,.15.15h.27V9.56Z" transform="translate(-2.97 -2.3)" fill="#012840"/><path d="M142.41,63.93H17.88a2.1,2.1,0,0,1-2.1-2.1v-.34a2.11,2.11,0,0,1,2.1-2.09H142.41a2.1,2.1,0,0,1,2.1,2.09v.34a2.1,2.1,0,0,1-2.1,2.1h0" transform="translate(-2.97 -2.3)" fill="#012840"/><rect x="121.58" y="61.63" width="2.27" height="60.98" fill="#012840"/><path d="M123.62,52.09h0a23.34,23.34,0,0,0,.23,3.44c.31,2.51.54,3.92.54,3.92h4.71s.08-.51.2-1.22h.53a1.62,1.62,0,0,0,.75-.24,1.66,1.66,0,0,0,.72-1.05c.11-.34.34-1.18.47-1.68a1.69,1.69,0,0,0-.24-1.46,1.4,1.4,0,0,0-1.17-.62h-.55V52.07a.47.47,0,0,0-.47-.46h-5.26a.45.45,0,0,0-.46.44v0m5.75,5.69h0m0-.09Zm.42-.2h-.41c.09-.63.19-1.33.25-2s.09-1.11.12-1.6h.58a.69.69,0,0,1,.54.28A.94.94,0,0,1,131,55c-.12.48-.35,1.31-.45,1.63a1,1,0,0,1-.38.62.93.93,0,0,1-.39.15m-.51.67h0m0-.09h0" transform="translate(-2.97 -2.3)" fill="#67c187"/><rect x="30.51" y="61.63" width="2.27" height="60.98" fill="#012840"/><path d="M51.86,56.44H17.25a3.64,3.64,0,0,1-3.64-3.64V30a3.64,3.64,0,0,1,3.64-3.64H51.86A3.64,3.64,0,0,1,55.48,30V52.8a3.64,3.64,0,0,1-3.64,3.64" transform="translate(-2.97 -2.3)" fill="#012840"/><polygon points="34.89 54.14 28.29 54.14 27.56 57.09 35.62 57.09 34.89 54.14" fill="#012840"/><path d="M32.08,46.81a3.61,3.61,0,0,1-3.6-3.6V39.62h3.6a3.6,3.6,0,1,1,.38,7.19h-.38m-3.38-7v3.4a3.39,3.39,0,1,0,3.4-3.38H28.7Z" transform="translate(-2.97 -2.3)" fill="#67c187"/><path d="M37,46.82a3.6,3.6,0,0,1,0-7.2h3.6v3.6A3.59,3.59,0,0,1,37,46.82Zm3.38-7H37a3.38,3.38,0,0,0,0,6.76h0a3.38,3.38,0,0,0,3.38-3.38Z" transform="translate(-2.97 -2.3)" fill="#67c187"/><path d="M34.63,39.12l-.23-.4a1.55,1.55,0,0,0-.63-.64l-.41-.22.41-.23A1.47,1.47,0,0,0,34.4,37l.23-.41.22.41a1.55,1.55,0,0,0,.64.63l.4.23-.4.22a1.76,1.76,0,0,0-.64.63Zm-.91-1.26.13.07a1.91,1.91,0,0,1,.71.7l.07.13.07-.13a2,2,0,0,1,.7-.7l.13-.07-.13-.07a1.84,1.84,0,0,1-.7-.71L34.63,37l-.07.13a1.73,1.73,0,0,1-.71.71Z" transform="translate(-2.97 -2.3)" fill="#67c187"/><path d="M35.48,37.28l-.13-.23a.71.71,0,0,0-.28-.29l-.23-.12.23-.13a.63.63,0,0,0,.28-.28l.13-.23.12.23a.71.71,0,0,0,.29.28l.23.13-.23.13a.78.78,0,0,0-.29.28Zm-.37-.64h0a.92.92,0,0,1,.34.34h0a.92.92,0,0,1,.34-.34h0a.86.86,0,0,1-.34-.34h0A.92.92,0,0,1,35.11,36.64Z" transform="translate(-2.97 -2.3)" fill="#67c187"/><path d="M14,76.65h12.7a3.8,3.8,0,0,1,3.8,3.79v43H10.23v-43A3.81,3.81,0,0,1,14,76.65" transform="translate(-2.97 -2.3)" fill="#012840"/><path d="M25.31,119.51H15.48a1.31,1.31,0,0,1-1.31-1.31V82.53a1.31,1.31,0,0,1,1.31-1.31h9.87a1.32,1.32,0,0,1,1.32,1.31V118.2a1.31,1.31,0,0,1-1.32,1.31M15.48,81.94a.61.61,0,0,0-.59.59V118.2a.6.6,0,0,0,.59.59h9.87a.58.58,0,0,0,.59-.59V82.53a.59.59,0,0,0-.59-.59Z" transform="translate(-2.97 -2.3)" fill="#e5e5e5"/><path d="M21.59,86.26a1.21,1.21,0,1,1-1.21-1.21h0a1.21,1.21,0,0,1,1.21,1.21" transform="translate(-2.97 -2.3)" fill="#67c187"/></svg>