<svg width="234" height="233" viewBox="0 0 234 233" fill="none" xmlns="http://www.w3.org/2000/svg">
<path d="M216.258 97.9317C216.258 97.9317 186.434 25.1817 131.912 11.1336C77.39 -2.91439 54.5229 40.0415 46.168 69.8352C37.813 99.6289 7.02396 139.073 9.81996 166.166C12.4771 191.915 35.045 204.096 56.1222 209.322C82.9116 215.963 113.354 216.468 140.245 210.931C146.642 209.614 152.918 207.844 159.148 205.814C171.783 201.693 184.183 198.502 196.98 195.088C221.325 188.594 230.971 162.446 228.224 137.424C226.677 123.345 221.517 110.746 216.258 97.9317Z" fill="#92E3A9"/>
<path opacity="0.7" d="M216.258 97.9317C216.258 97.9317 186.434 25.1817 131.912 11.1336C77.39 -2.91439 54.5229 40.0415 46.168 69.8352C37.813 99.6289 7.02396 139.073 9.81996 166.166C12.4771 191.915 35.045 204.096 56.1222 209.322C82.9116 215.963 113.354 216.468 140.245 210.931C146.642 209.614 152.918 207.844 159.148 205.814C171.783 201.693 184.183 198.502 196.98 195.088C221.325 188.594 230.971 162.446 228.224 137.424C226.677 123.345 221.517 110.746 216.258 97.9317Z" fill="white"/>
<path d="M23.1714 102.857L31.7668 185.215" stroke="#263238" stroke-width="1.004" stroke-miterlimit="10"/>
<path d="M30.3812 169.454L26.4845 165.338" stroke="#263238" stroke-width="1.004" stroke-miterlimit="10"/>
<path d="M27.6687 166.571C27.6687 166.571 27.78 164.75 26.1178 163.266C25.1178 162.372 19.8538 160.158 19.3543 162.012C18.8109 164.029 24.1988 167.989 27.6687 166.571Z" fill="#92E3A9" stroke="#263238" stroke-width="0.502" stroke-miterlimit="10"/>
<path d="M27.6687 166.571L22.6573 163.448" stroke="#263238" stroke-width="0.251" stroke-miterlimit="10"/>
<path d="M31.3585 178.82L27.4623 174.705" stroke="#263238" stroke-width="1.004" stroke-miterlimit="10"/>
<path d="M28.6459 175.938C28.6459 175.938 28.7573 174.117 27.095 172.632C26.095 171.739 20.8311 169.525 20.3315 171.379C19.7886 173.395 25.1761 177.355 28.6459 175.938Z" fill="#92E3A9" stroke="#263238" stroke-width="0.502" stroke-miterlimit="10"/>
<path d="M28.6459 175.938L23.635 172.815" stroke="#263238" stroke-width="0.251" stroke-miterlimit="10"/>
<path d="M27.9958 146.597L24.0996 142.482" stroke="#263238" stroke-width="1.004" stroke-miterlimit="10"/>
<path d="M25.2832 143.715C25.2832 143.715 25.3946 141.895 23.7324 140.41C22.7323 139.517 17.4684 137.302 16.9688 139.156C16.426 141.173 21.8134 145.132 25.2832 143.715Z" fill="#92E3A9" stroke="#263238" stroke-width="0.502" stroke-miterlimit="10"/>
<path d="M25.2832 143.715L20.2723 140.593" stroke="#263238" stroke-width="0.251" stroke-miterlimit="10"/>
<path d="M28.9735 155.964L25.0768 151.849" stroke="#263238" stroke-width="1.004" stroke-miterlimit="10"/>
<path d="M26.2609 153.082C26.2609 153.082 26.3723 151.261 24.7101 149.777C23.7101 148.883 18.4461 146.669 17.9466 148.523C17.4032 150.539 22.7911 154.499 26.2609 153.082Z" fill="#92E3A9" stroke="#263238" stroke-width="0.502" stroke-miterlimit="10"/>
<path d="M26.261 153.082L21.2496 149.959" stroke="#263238" stroke-width="0.251" stroke-miterlimit="10"/>
<path d="M26.4082 131.383L22.5115 127.267" stroke="#263238" stroke-width="1.004" stroke-miterlimit="10"/>
<path d="M23.6956 128.5C23.6956 128.5 23.807 126.679 22.1448 125.195C21.1448 124.301 15.8808 122.087 15.3813 123.941C14.8379 125.957 20.2258 129.917 23.6956 128.5Z" fill="#92E3A9" stroke="#263238" stroke-width="0.502" stroke-miterlimit="10"/>
<path d="M23.6957 128.5L18.6843 125.377" stroke="#263238" stroke-width="0.251" stroke-miterlimit="10"/>
<path d="M24.8131 116.101L20.9169 111.985" stroke="#263238" stroke-width="1.004" stroke-miterlimit="10"/>
<path d="M22.1005 113.218C22.1005 113.218 22.2119 111.398 20.5496 109.913C19.5496 109.02 14.2857 106.805 13.7861 108.659C13.2432 110.676 18.6306 114.635 22.1005 113.218Z" fill="#92E3A9" stroke="#263238" stroke-width="0.502" stroke-miterlimit="10"/>
<path d="M22.1005 113.218L17.0896 110.096" stroke="#263238" stroke-width="0.251" stroke-miterlimit="10"/>
<path d="M29.7261 163.912L32.6889 159.08" stroke="#263238" stroke-width="1.004" stroke-miterlimit="10"/>
<path d="M31.7853 160.531C31.7853 160.531 31.3002 158.773 32.6204 156.977C33.4144 155.897 38.1075 152.643 38.9789 154.354C39.9268 156.215 35.4727 161.202 31.7853 160.531Z" fill="#92E3A9" stroke="#263238" stroke-width="0.502" stroke-miterlimit="10"/>
<path d="M31.7853 160.531L36.2976 156.219" stroke="#263238" stroke-width="0.251" stroke-miterlimit="10"/>
<path d="M27.1538 139.264L30.1166 134.432" stroke="#263238" stroke-width="1.004" stroke-miterlimit="10"/>
<path d="M29.213 135.883C29.213 135.883 28.7279 134.125 30.0481 132.329C30.8422 131.248 35.5352 127.995 36.4067 129.706C37.3545 131.567 32.9005 136.554 29.213 135.883Z" fill="#92E3A9" stroke="#263238" stroke-width="0.502" stroke-miterlimit="10"/>
<path d="M29.213 135.883L33.7253 131.57" stroke="#263238" stroke-width="0.251" stroke-miterlimit="10"/>
<path d="M26.0237 128.432L28.9865 123.6" stroke="#263238" stroke-width="1.004" stroke-miterlimit="10"/>
<path d="M28.0825 125.052C28.0825 125.052 27.5974 123.293 28.9176 121.497C29.7117 120.417 34.4048 117.164 35.2762 118.874C36.224 120.735 31.7705 125.722 28.0825 125.052Z" fill="#92E3A9" stroke="#263238" stroke-width="0.502" stroke-miterlimit="10"/>
<path d="M28.0825 125.051L32.5948 120.739" stroke="#263238" stroke-width="0.251" stroke-miterlimit="10"/>
<path d="M24.3662 112.552L27.329 107.721" stroke="#263238" stroke-width="1.004" stroke-miterlimit="10"/>
<path d="M26.4254 109.172C26.4254 109.172 25.9403 107.413 27.2605 105.617C28.0546 104.537 32.7476 101.284 33.6191 102.994C34.5669 104.855 30.1129 109.842 26.4254 109.172Z" fill="#92E3A9" stroke="#263238" stroke-width="0.502" stroke-miterlimit="10"/>
<path d="M26.4255 109.172L30.9378 104.859" stroke="#263238" stroke-width="0.251" stroke-miterlimit="10"/>
<path d="M23.0991 102.399C23.0991 102.399 22.614 100.641 23.9342 98.8451C24.7283 97.7645 29.4214 94.5113 30.2928 96.222C31.2406 98.0827 26.7866 103.07 23.0991 102.399Z" fill="#92E3A9" stroke="#263238" stroke-width="0.502" stroke-miterlimit="10"/>
<path d="M23.0991 102.399L27.6114 98.0864" stroke="#263238" stroke-width="0.251" stroke-miterlimit="10"/>
<path d="M23.3606 102.586C23.3606 102.586 21.5614 102.883 19.9136 101.382C18.9224 100.479 16.1791 95.4707 17.9718 94.7839C19.9215 94.0359 24.4142 98.9886 23.3606 102.586Z" fill="#92E3A9" stroke="#263238" stroke-width="0.502" stroke-miterlimit="10"/>
<path d="M23.3607 102.586L19.545 97.6455" stroke="#263238" stroke-width="0.251" stroke-miterlimit="10"/>
<path d="M45.8413 114.199L37.2944 196.562" stroke="#263238" stroke-width="1.004" stroke-miterlimit="10"/>
<path d="M39.1841 180.853L36.2185 176.024" stroke="#263238" stroke-width="1.004" stroke-miterlimit="10"/>
<path d="M37.123 177.474C37.123 177.474 37.6067 175.716 36.286 173.921C35.491 172.84 30.7961 169.59 29.9256 171.301C28.9791 173.162 33.436 178.147 37.123 177.474Z" fill="#92E3A9" stroke="#263238" stroke-width="0.502" stroke-miterlimit="10"/>
<path d="M37.1229 177.474L32.8623 173.386" stroke="#263238" stroke-width="0.251" stroke-miterlimit="10"/>
<path d="M41.5561 157.996L38.5905 153.166" stroke="#263238" stroke-width="1.004" stroke-miterlimit="10"/>
<path d="M39.4949 154.617C39.4949 154.617 39.9791 152.858 38.658 151.063C37.863 149.983 33.168 146.733 32.2975 148.444C31.3511 150.305 35.8079 155.289 39.4949 154.617Z" fill="#92E3A9" stroke="#263238" stroke-width="0.502" stroke-miterlimit="10"/>
<path d="M39.4949 154.617L35.2343 150.529" stroke="#263238" stroke-width="0.251" stroke-miterlimit="10"/>
<path d="M40.584 167.363L37.6184 162.533" stroke="#263238" stroke-width="1.004" stroke-miterlimit="10"/>
<path d="M38.5229 163.984C38.5229 163.984 39.007 162.225 37.6859 160.43C36.8909 159.35 32.196 156.1 31.3255 157.811C30.379 159.672 34.8359 164.656 38.5229 163.984Z" fill="#92E3A9" stroke="#263238" stroke-width="0.502" stroke-miterlimit="10"/>
<path d="M38.5228 163.984L34.2622 159.896" stroke="#263238" stroke-width="0.251" stroke-miterlimit="10"/>
<path d="M43.1349 142.78L40.1693 137.95" stroke="#263238" stroke-width="1.004" stroke-miterlimit="10"/>
<path d="M41.0738 139.401C41.0738 139.401 41.5579 137.642 40.2368 135.847C39.4418 134.767 34.7469 131.516 33.8764 133.228C32.9299 135.089 37.3868 140.073 41.0738 139.401Z" fill="#92E3A9" stroke="#263238" stroke-width="0.502" stroke-miterlimit="10"/>
<path d="M41.0737 139.401L36.8131 135.313" stroke="#263238" stroke-width="0.251" stroke-miterlimit="10"/>
<path d="M44.7206 127.497L41.755 122.667" stroke="#263238" stroke-width="1.004" stroke-miterlimit="10"/>
<path d="M42.6595 124.118C42.6595 124.118 43.1436 122.359 41.8225 120.564C41.0275 119.484 36.3326 116.234 35.4621 117.945C34.5156 119.806 38.9725 124.791 42.6595 124.118Z" fill="#92E3A9" stroke="#263238" stroke-width="0.502" stroke-miterlimit="10"/>
<path d="M42.6594 124.118L38.3988 120.03" stroke="#263238" stroke-width="0.251" stroke-miterlimit="10"/>
<path d="M39.6846 175.295L43.5785 171.178" stroke="#263238" stroke-width="1.004" stroke-miterlimit="10"/>
<path d="M42.3953 172.411C42.3953 172.411 42.2825 170.59 43.9443 169.105C44.9438 168.211 50.2064 165.993 50.7069 167.847C51.2512 169.864 45.8661 173.826 42.3953 172.411Z" fill="#92E3A9" stroke="#263238" stroke-width="0.502" stroke-miterlimit="10"/>
<path d="M42.3953 172.411L47.6988 169.12" stroke="#263238" stroke-width="0.251" stroke-miterlimit="10"/>
<path d="M42.2424 150.646L46.1363 146.528" stroke="#263238" stroke-width="1.004" stroke-miterlimit="10"/>
<path d="M44.9531 147.762C44.9531 147.762 44.8404 145.941 46.5021 144.455C47.5017 143.562 52.7642 141.344 53.2647 143.198C53.809 145.214 48.4239 149.177 44.9531 147.762Z" fill="#92E3A9" stroke="#263238" stroke-width="0.502" stroke-miterlimit="10"/>
<path d="M44.9531 147.762L50.2567 144.47" stroke="#263238" stroke-width="0.251" stroke-miterlimit="10"/>
<path d="M43.3665 139.813L47.2604 135.695" stroke="#263238" stroke-width="1.004" stroke-miterlimit="10"/>
<path d="M46.0772 136.929C46.0772 136.929 45.9644 135.109 47.6262 133.623C48.6257 132.729 53.8883 130.512 54.3887 132.365C54.933 134.381 49.5479 138.344 46.0772 136.929Z" fill="#92E3A9" stroke="#263238" stroke-width="0.502" stroke-miterlimit="10"/>
<path d="M46.0771 136.929L51.3807 133.638" stroke="#263238" stroke-width="0.251" stroke-miterlimit="10"/>
<path d="M45.0143 123.933L48.9082 119.815" stroke="#263238" stroke-width="1.004" stroke-miterlimit="10"/>
<path d="M47.725 121.049C47.725 121.049 47.6122 119.228 49.274 117.743C50.2736 116.849 55.5361 114.631 56.0366 116.485C56.5809 118.501 51.1958 122.464 47.725 121.049Z" fill="#92E3A9" stroke="#263238" stroke-width="0.502" stroke-miterlimit="10"/>
<path d="M47.725 121.049L53.0285 117.757" stroke="#263238" stroke-width="0.251" stroke-miterlimit="10"/>
<path d="M45.8646 113.737C45.8646 113.737 45.7519 111.916 47.4136 110.431C48.4132 109.537 53.6757 107.319 54.1762 109.173C54.7205 111.189 49.3349 115.152 45.8646 113.737Z" fill="#92E3A9" stroke="#263238" stroke-width="0.502" stroke-miterlimit="10"/>
<path d="M45.8647 113.737L51.1683 110.445" stroke="#263238" stroke-width="0.251" stroke-miterlimit="10"/>
<path d="M46.0823 113.972C46.0823 113.972 44.2603 113.894 42.9569 112.086C42.1726 110.998 40.5192 105.532 42.4154 105.228C44.4769 104.898 47.8536 110.669 46.0823 113.972Z" fill="#92E3A9" stroke="#263238" stroke-width="0.502" stroke-miterlimit="10"/>
<path d="M46.0824 113.972L43.3651 108.353" stroke="#263238" stroke-width="0.251" stroke-miterlimit="10"/>
<path d="M36.0469 80.6604V184.814" stroke="#263238" stroke-width="1.004" stroke-miterlimit="10"/>
<path d="M36.1298 169.154L32.6819 164.656" stroke="#263238" stroke-width="1.004" stroke-miterlimit="10"/>
<path d="M33.7313 166.005C33.7313 166.005 34.031 164.206 32.5319 162.557C31.6297 161.565 26.6244 158.816 25.9352 160.608C25.1854 162.557 30.1329 167.054 33.7313 166.005Z" fill="#92E3A9" stroke="#263238" stroke-width="0.502" stroke-miterlimit="10"/>
<path d="M33.7313 166.005L29.0713 162.379" stroke="#263238" stroke-width="0.251" stroke-miterlimit="10"/>
<path d="M36.1298 149.58L32.6819 145.083" stroke="#263238" stroke-width="1.004" stroke-miterlimit="10"/>
<path d="M33.7313 146.432C33.7313 146.432 34.031 144.633 32.5319 142.984C31.6297 141.992 26.6244 139.243 25.9352 141.035C25.1854 142.984 30.1329 147.481 33.7313 146.432Z" fill="#92E3A9" stroke="#263238" stroke-width="0.502" stroke-miterlimit="10"/>
<path d="M33.7313 146.432L29.0713 142.806" stroke="#263238" stroke-width="0.251" stroke-miterlimit="10"/>
<path d="M36.1298 126.6L32.6819 122.103" stroke="#263238" stroke-width="1.004" stroke-miterlimit="10"/>
<path d="M33.7313 123.452C33.7313 123.452 34.031 121.653 32.5319 120.003C31.6297 119.011 26.6244 116.262 25.9352 118.055C25.1854 120.003 30.1329 124.501 33.7313 123.452Z" fill="#92E3A9" stroke="#263238" stroke-width="0.502" stroke-miterlimit="10"/>
<path d="M33.7313 123.452L29.0713 119.826" stroke="#263238" stroke-width="0.251" stroke-miterlimit="10"/>
<path d="M36.1298 111.302L32.6819 106.805" stroke="#263238" stroke-width="1.004" stroke-miterlimit="10"/>
<path d="M33.7313 108.154C33.7313 108.154 34.031 106.355 32.5319 104.706C31.6297 103.713 26.6244 100.964 25.9352 102.757C25.1854 104.706 30.1329 109.203 33.7313 108.154Z" fill="#92E3A9" stroke="#263238" stroke-width="0.502" stroke-miterlimit="10"/>
<path d="M33.7313 108.154L29.0713 104.528" stroke="#263238" stroke-width="0.251" stroke-miterlimit="10"/>
<path d="M36.1298 95.9378L32.6819 91.4399" stroke="#263238" stroke-width="1.004" stroke-miterlimit="10"/>
<path d="M33.7313 92.7894C33.7313 92.7894 34.031 90.9902 32.5319 89.341C31.6297 88.3489 26.6244 85.6 25.9352 87.3922C25.1854 89.341 30.1329 93.8389 33.7313 92.7894Z" fill="#92E3A9" stroke="#263238" stroke-width="0.502" stroke-miterlimit="10"/>
<path d="M33.7313 92.7894L29.0713 89.1635" stroke="#263238" stroke-width="0.251" stroke-miterlimit="10"/>
<path d="M36.0538 175.13L39.5022 170.633" stroke="#263238" stroke-width="1.004" stroke-miterlimit="10"/>
<path d="M38.4523 171.982C38.4523 171.982 38.1527 170.183 39.6518 168.534C40.554 167.541 45.5593 164.792 46.2485 166.585C46.9983 168.534 42.0507 173.031 38.4523 171.982Z" fill="#92E3A9" stroke="#263238" stroke-width="0.502" stroke-miterlimit="10"/>
<path d="M38.4524 171.982L43.3883 168.161" stroke="#263238" stroke-width="0.251" stroke-miterlimit="10"/>
<path d="M36.0538 144L39.5022 139.503" stroke="#263238" stroke-width="1.004" stroke-miterlimit="10"/>
<path d="M38.4523 140.852C38.4523 140.852 38.1527 139.053 39.6518 137.404C40.554 136.412 45.5593 133.663 46.2485 135.455C46.9983 137.404 42.0507 141.902 38.4523 140.852Z" fill="#92E3A9" stroke="#263238" stroke-width="0.502" stroke-miterlimit="10"/>
<path d="M38.4524 140.852L43.3883 137.031" stroke="#263238" stroke-width="0.251" stroke-miterlimit="10"/>
<path d="M36.0538 128.636L39.5022 124.138" stroke="#263238" stroke-width="1.004" stroke-miterlimit="10"/>
<path d="M38.4523 125.487C38.4523 125.487 38.1527 123.688 39.6518 122.039C40.554 121.047 45.5593 118.298 46.2485 120.09C46.9983 122.039 42.0507 126.537 38.4523 125.487Z" fill="#92E3A9" stroke="#263238" stroke-width="0.502" stroke-miterlimit="10"/>
<path d="M38.4524 125.487L43.3883 121.666" stroke="#263238" stroke-width="0.251" stroke-miterlimit="10"/>
<path d="M36.0538 108.328L39.5022 103.83" stroke="#263238" stroke-width="1.004" stroke-miterlimit="10"/>
<path d="M38.4523 105.179C38.4523 105.179 38.1527 103.38 39.6518 101.731C40.554 100.739 45.5593 97.99 46.2485 99.7817C46.9983 101.731 42.0507 106.229 38.4523 105.179Z" fill="#92E3A9" stroke="#263238" stroke-width="0.502" stroke-miterlimit="10"/>
<path d="M38.4524 105.179L43.3883 101.358" stroke="#263238" stroke-width="0.251" stroke-miterlimit="10"/>
<path d="M36.0538 92.3621L39.5022 87.8643" stroke="#263238" stroke-width="1.004" stroke-miterlimit="10"/>
<path d="M38.4523 89.2133C38.4523 89.2133 38.1527 87.414 39.6518 85.7649C40.554 84.7727 45.5593 82.0238 46.2485 83.8161C46.9983 85.7653 42.0507 90.2627 38.4523 89.2133Z" fill="#92E3A9" stroke="#263238" stroke-width="0.502" stroke-miterlimit="10"/>
<path d="M38.4524 89.2133L43.3883 85.3926" stroke="#263238" stroke-width="0.251" stroke-miterlimit="10"/>
<path d="M35.8474 82.1325C35.8474 82.1325 35.5473 80.3332 37.0469 78.6841C37.9491 77.6919 42.9544 74.943 43.6436 76.7352C44.3929 78.6841 39.4454 83.1819 35.8474 82.1325Z" fill="#92E3A9" stroke="#263238" stroke-width="0.502" stroke-miterlimit="10"/>
<path d="M35.8474 82.1325L40.7828 78.3113" stroke="#263238" stroke-width="0.251" stroke-miterlimit="10"/>
<path d="M36.0879 82.3445C36.0879 82.3445 34.2672 82.454 32.7844 80.7899C31.892 79.7889 29.6836 74.5227 31.5378 74.0255C33.5552 73.4844 37.5092 78.8765 36.0879 82.3445Z" fill="#92E3A9" stroke="#263238" stroke-width="0.502" stroke-miterlimit="10"/>
<path d="M36.0878 82.3444L32.8058 77.0358" stroke="#263238" stroke-width="0.251" stroke-miterlimit="10"/>
<path d="M40.3318 211.827H29.3016L27.9227 183.97H41.7107L40.3318 211.827Z" fill="#263238" stroke="#263238" stroke-width="0.502" stroke-miterlimit="10"/>
<path d="M177.271 146.988C177.271 146.988 177.33 145.463 177.975 144.408C178.62 143.352 180.965 142.59 182.196 143.118C183.427 143.645 184.014 143.997 184.014 143.997C184.014 143.997 182.196 144.525 180.554 145.639C178.913 146.753 177.271 146.988 177.271 146.988Z" fill="#92E3A9"/>
<path d="M174.809 147.75C174.809 147.75 176.216 146.401 176.451 144.526C176.685 142.65 174.692 145.31 174.692 145.31C174.692 145.31 173.695 141.536 173.109 143.646C172.523 145.756 174.809 147.75 174.809 147.75Z" fill="#92E3A9"/>
<path d="M172.112 147.164C172.112 147.164 172.464 145.405 171.819 144.174C171.174 142.943 169.474 143.06 167.774 143.588C166.074 144.115 165.546 144.115 165.546 144.115C165.546 144.115 167.539 145.464 169.24 146.167C170.94 146.87 172.112 147.164 172.112 147.164Z" fill="#92E3A9"/>
<path d="M174.793 153.481C174.877 153.481 174.945 153.413 174.945 153.33V144.946C174.945 144.863 174.877 144.795 174.793 144.795C174.709 144.795 174.642 144.863 174.642 144.946V153.33C174.642 153.413 174.71 153.481 174.793 153.481Z" fill="#263238"/>
<path d="M174.09 153.481C174.097 153.481 174.104 153.481 174.111 153.48C174.194 153.469 174.251 153.392 174.24 153.309C174.211 153.099 173.502 148.132 171.097 145.374C171.042 145.311 170.946 145.305 170.883 145.36C170.82 145.415 170.813 145.511 170.868 145.574C173.214 148.262 173.933 153.3 173.94 153.351C173.95 153.426 174.016 153.481 174.09 153.481Z" fill="#263238"/>
<path d="M175.497 153.364H175.499C175.583 153.363 175.649 153.294 175.649 153.21C175.648 153.162 175.627 148.39 178.465 146.12C178.53 146.067 178.541 145.972 178.489 145.906C178.436 145.841 178.341 145.831 178.276 145.883C175.32 148.247 175.344 153.012 175.346 153.214C175.346 153.297 175.414 153.364 175.497 153.364Z" fill="#263238"/>
<path d="M173.152 153.305C173.165 153.305 173.179 153.303 173.191 153.3C173.272 153.278 173.32 153.195 173.298 153.114C173.281 153.051 172.87 151.548 171.926 150.251C171.877 150.183 171.782 150.168 171.714 150.217C171.647 150.266 171.632 150.361 171.681 150.429C172.592 151.681 173.002 153.178 173.006 153.193C173.024 153.261 173.085 153.305 173.152 153.305Z" fill="#263238"/>
<path d="M172.229 150.974C172.229 150.974 172.288 149.333 171.584 149.098C170.881 148.864 170.236 149.45 169.708 149.802C169.181 150.154 168.595 150.505 168.595 151.56C168.595 152.616 169.005 154.55 169.005 154.55C169.005 154.55 169.591 152.733 170.588 151.912C171.585 151.092 172.229 150.974 172.229 150.974Z" fill="#92E3A9"/>
<path d="M176.553 153.364C176.617 153.364 176.676 153.323 176.697 153.259C176.701 153.244 177.166 151.826 178.229 150.986C178.295 150.935 178.306 150.839 178.254 150.773C178.202 150.708 178.107 150.696 178.041 150.748C176.904 151.646 176.428 153.104 176.408 153.166C176.382 153.245 176.427 153.331 176.506 153.356C176.522 153.362 176.537 153.364 176.553 153.364Z" fill="#263238"/>
<path d="M177.272 151.502C177.272 151.502 177.037 150.446 177.623 149.684C178.21 148.922 179.616 149.098 180.32 149.919C181.024 150.739 182.02 153.202 182.02 153.202C182.02 153.202 180.613 152.088 178.971 152.088C177.33 152.088 177.272 151.502 177.272 151.502Z" fill="#92E3A9"/>
<path d="M172.6 162.351H177.279L179.618 154.612H170.26L172.6 162.351Z" fill="#263238" stroke="#263238" stroke-width="0.502" stroke-miterlimit="10" stroke-linecap="round" stroke-linejoin="round"/>
<path d="M170.234 154.612H179.645V153.329H170.234V154.612Z" fill="#263238" stroke="#263238" stroke-width="0.502" stroke-miterlimit="10" stroke-linecap="round" stroke-linejoin="round"/>
<path d="M138.712 43.9641H95.2948C90.8765 43.9641 87.2948 47.5458 87.2948 51.9641V88.391C87.2948 92.8093 90.8765 96.391 95.2948 96.391H138.712C143.13 96.391 146.712 92.8093 146.712 88.391V51.9641C146.712 47.5458 143.13 43.9641 138.712 43.9641Z" fill="white" stroke="#263238" stroke-width="0.502" stroke-miterlimit="10" stroke-linecap="round" stroke-linejoin="round"/>
<path d="M113.289 66.4118V60.886C113.289 58.8402 114.989 57.1761 117.078 57.1761C119.168 57.1761 120.867 58.8402 120.867 60.886V64.1144H122.378V60.886C122.378 58.0252 120.001 55.6975 117.078 55.6975C114.156 55.6975 111.778 58.0252 111.778 60.886V66.4118H113.289Z" fill="white" stroke="#263238" stroke-width="0.502" stroke-miterlimit="10" stroke-linecap="round" stroke-linejoin="round"/>
<path d="M122.789 65.875H111.217V75.4471H122.789V65.875Z" fill="#92E3A9" stroke="#263238" stroke-width="0.502" stroke-miterlimit="10" stroke-linecap="round" stroke-linejoin="round"/>
<path d="M124.439 62.3622L125.189 60.6478" stroke="#263238" stroke-width="0.502" stroke-miterlimit="10" stroke-linecap="round" stroke-linejoin="round"/>
<path d="M124.546 64.3987H127.332" stroke="#263238" stroke-width="0.502" stroke-miterlimit="10" stroke-linecap="round" stroke-linejoin="round"/>
<path d="M124.224 66.3275L125.725 67.9352" stroke="#263238" stroke-width="0.502" stroke-miterlimit="10" stroke-linecap="round" stroke-linejoin="round"/>
<path d="M118.206 69.85C118.206 69.1687 117.643 68.6165 116.947 68.6165C116.251 68.6165 115.687 69.1687 115.687 69.85C115.687 70.3192 115.955 70.727 116.349 70.9357L116.137 73.1096H117.757L117.546 70.9357C117.939 70.727 118.206 70.3192 118.206 69.85Z" fill="#263238" stroke="#263238" stroke-width="0.502" stroke-miterlimit="10" stroke-linecap="round" stroke-linejoin="round"/>
<path d="M137.719 87.4955H96.2867C95.2573 87.4955 94.4227 86.6609 94.4227 85.6315V81.2101C94.4227 80.1807 95.2573 79.3461 96.2867 79.3461H137.719C138.749 79.3461 139.583 80.1807 139.583 81.2101V85.6315C139.583 86.6613 138.749 87.4955 137.719 87.4955Z" fill="white" stroke="#263238" stroke-width="0.502" stroke-miterlimit="10" stroke-linecap="round" stroke-linejoin="round"/>
<path d="M98.8078 83.6785C98.4919 83.5774 98.3908 83.3374 98.4793 83.0843L98.5045 83.0214C98.6056 82.7558 98.8204 82.6677 99.1112 82.7558C99.3889 82.8569 99.8442 83.0843 100.185 83.3243C100.072 82.9324 99.9831 82.4016 99.9831 82.0862C99.9831 81.7954 100.147 81.5931 100.438 81.5931H100.501C100.792 81.5931 100.956 81.7954 100.956 82.0862C100.956 82.4021 100.868 82.9329 100.754 83.3243C101.108 83.0843 101.55 82.8569 101.828 82.7558C102.106 82.6673 102.346 82.7558 102.434 83.034L102.447 83.0718C102.535 83.3625 102.447 83.5769 102.131 83.6785C101.84 83.767 101.348 83.843 100.93 83.8556C101.246 84.0956 101.638 84.4493 101.828 84.7023C101.992 84.9297 101.967 85.1949 101.752 85.3594L101.701 85.3971C101.461 85.5742 101.221 85.5234 101.032 85.2708C100.854 85.0178 100.64 84.6012 100.476 84.1715C100.299 84.6012 100.084 85.0182 99.9071 85.2708C99.7175 85.5234 99.4775 85.5742 99.2375 85.3971L99.1871 85.3594C98.9597 85.1949 98.9472 84.9297 99.1112 84.7023C99.3008 84.4493 99.6923 84.0956 100.008 83.843C99.6037 83.843 99.0986 83.767 98.8078 83.6785Z" fill="#263238"/>
<path d="M103.534 83.6785C103.218 83.5774 103.116 83.3374 103.205 83.0843L103.23 83.0214C103.331 82.7558 103.546 82.6677 103.837 82.7558C104.115 82.8569 104.57 83.0843 104.911 83.3243C104.797 82.9324 104.709 82.4016 104.709 82.0862C104.709 81.7954 104.873 81.5931 105.164 81.5931H105.227C105.518 81.5931 105.682 81.7954 105.682 82.0862C105.682 82.4021 105.593 82.9329 105.48 83.3243C105.833 83.0843 106.276 82.8569 106.554 82.7558C106.831 82.6673 107.072 82.7558 107.16 83.034L107.173 83.0718C107.261 83.3625 107.173 83.5769 106.857 83.6785C106.566 83.767 106.073 83.843 105.656 83.8556C105.972 84.0956 106.364 84.4493 106.554 84.7023C106.718 84.9297 106.693 85.1949 106.478 85.3594L106.427 85.3971C106.187 85.5742 105.947 85.5234 105.757 85.2708C105.58 85.0178 105.365 84.6012 105.201 84.1715C105.024 84.6012 104.809 85.0182 104.633 85.2708C104.443 85.5234 104.203 85.5742 103.963 85.3971L103.913 85.3594C103.685 85.1949 103.673 84.9297 103.837 84.7023C104.027 84.4493 104.418 84.0956 104.734 83.843C104.329 83.843 103.824 83.767 103.534 83.6785Z" fill="#263238"/>
<path d="M108.259 83.6785C107.943 83.5774 107.842 83.3374 107.93 83.0843L107.955 83.0214C108.057 82.7558 108.271 82.6677 108.562 82.7558C108.84 82.8569 109.295 83.0843 109.636 83.3243C109.522 82.9324 109.434 82.4016 109.434 82.0862C109.434 81.7954 109.598 81.5931 109.888 81.5931H109.952C110.243 81.5931 110.407 81.7954 110.407 82.0862C110.407 82.4021 110.318 82.9329 110.204 83.3243C110.558 83.0843 111 82.8569 111.278 82.7558C111.556 82.6673 111.797 82.7558 111.885 83.034L111.898 83.0718C111.986 83.3625 111.898 83.5769 111.582 83.6785C111.291 83.767 110.798 83.843 110.381 83.8556C110.697 84.0956 111.089 84.4493 111.279 84.7023C111.443 84.9297 111.418 85.1949 111.203 85.3594L111.153 85.3971C110.913 85.5742 110.673 85.5234 110.483 85.2708C110.306 85.0178 110.091 84.6012 109.927 84.1715C109.75 84.6012 109.535 85.0182 109.359 85.2708C109.169 85.5234 108.929 85.5742 108.689 85.3971L108.639 85.3594C108.411 85.1949 108.399 84.9297 108.563 84.7023C108.752 84.4493 109.144 84.0956 109.46 83.843C109.055 83.843 108.55 83.767 108.259 83.6785Z" fill="#263238"/>
<path d="M112.984 83.6785C112.668 83.5774 112.567 83.3374 112.655 83.0843L112.681 83.0214C112.782 82.7558 112.997 82.6677 113.287 82.7558C113.565 82.8569 114.02 83.0843 114.361 83.3243C114.248 82.9324 114.159 82.4016 114.159 82.0862C114.159 81.7954 114.323 81.5931 114.614 81.5931H114.677C114.968 81.5931 115.132 81.7954 115.132 82.0862C115.132 82.4021 115.044 82.9329 114.93 83.3243C115.284 83.0843 115.726 82.8569 116.004 82.7558C116.282 82.6673 116.522 82.7558 116.611 83.034L116.623 83.0718C116.712 83.3625 116.623 83.5769 116.307 83.6785C116.017 83.767 115.524 83.843 115.107 83.8556C115.423 84.0956 115.814 84.4493 116.004 84.7023C116.168 84.9297 116.143 85.1949 115.928 85.3594L115.878 85.3971C115.638 85.5742 115.398 85.5234 115.208 85.2708C115.031 85.0178 114.816 84.6012 114.652 84.1715C114.475 84.6012 114.26 85.0182 114.084 85.2708C113.894 85.5234 113.654 85.5742 113.414 85.3971L113.363 85.3594C113.136 85.1949 113.123 84.9297 113.287 84.7023C113.477 84.4493 113.868 84.0956 114.184 83.843C113.78 83.843 113.275 83.767 112.984 83.6785Z" fill="#263238"/>
<path d="M117.71 83.6785C117.394 83.5774 117.293 83.3374 117.381 83.0843L117.406 83.0214C117.507 82.7558 117.722 82.6677 118.013 82.7558C118.291 82.8569 118.746 83.0843 119.087 83.3243C118.973 82.9324 118.885 82.4016 118.885 82.0862C118.885 81.7954 119.049 81.5931 119.34 81.5931H119.403C119.693 81.5931 119.858 81.7954 119.858 82.0862C119.858 82.4021 119.769 82.9329 119.656 83.3243C120.009 83.0843 120.452 82.8569 120.73 82.7558C121.008 82.6673 121.248 82.7558 121.337 83.034L121.349 83.0718C121.437 83.3625 121.349 83.5769 121.033 83.6785C120.742 83.767 120.25 83.843 119.832 83.8556C120.148 84.0956 120.54 84.4493 120.73 84.7023C120.894 84.9297 120.869 85.1949 120.654 85.3594L120.604 85.3971C120.364 85.5742 120.124 85.5234 119.934 85.2708C119.757 85.0178 119.542 84.6012 119.378 84.1715C119.201 84.6012 118.986 85.0182 118.809 85.2708C118.62 85.5234 118.38 85.5742 118.14 85.3971L118.089 85.3594C117.862 85.1949 117.849 84.9297 118.014 84.7023C118.203 84.4493 118.595 84.0956 118.911 83.843C118.506 83.843 118 83.767 117.71 83.6785Z" fill="#263238"/>
<path d="M122.435 83.6785C122.119 83.5774 122.018 83.3374 122.107 83.0843L122.132 83.0214C122.233 82.7558 122.448 82.6677 122.739 82.7558C123.016 82.8569 123.472 83.0843 123.813 83.3243C123.699 82.9324 123.611 82.4016 123.611 82.0862C123.611 81.7954 123.775 81.5931 124.065 81.5931H124.129C124.419 81.5931 124.584 81.7954 124.584 82.0862C124.584 82.4021 124.495 82.9329 124.381 83.3243C124.735 83.0843 125.178 82.8569 125.456 82.7558C125.734 82.6673 125.974 82.7558 126.062 83.034L126.075 83.0718C126.163 83.3625 126.075 83.5769 125.759 83.6785C125.468 83.767 124.976 83.843 124.558 83.8556C124.874 84.0956 125.266 84.4493 125.456 84.7023C125.62 84.9297 125.594 85.1949 125.38 85.3594L125.329 85.3971C125.089 85.5742 124.849 85.5234 124.66 85.2708C124.483 85.0178 124.268 84.6012 124.104 84.1715C123.927 84.6012 123.712 85.0182 123.535 85.2708C123.345 85.5234 123.105 85.5742 122.866 85.3971L122.815 85.3594C122.587 85.1949 122.575 84.9297 122.739 84.7023C122.928 84.4493 123.32 84.0956 123.637 83.843C123.231 83.843 122.726 83.767 122.435 83.6785Z" fill="#263238"/>
<path d="M127.161 83.6785C126.845 83.5774 126.744 83.3374 126.832 83.0843L126.858 83.0214C126.958 82.7558 127.173 82.6677 127.464 82.7558C127.742 82.8569 128.197 83.0843 128.538 83.3243C128.424 82.9324 128.336 82.4016 128.336 82.0862C128.336 81.7954 128.5 81.5931 128.791 81.5931H128.854C129.144 81.5931 129.309 81.7954 129.309 82.0862C129.309 82.4021 129.22 82.9329 129.107 83.3243C129.46 83.0843 129.903 82.8569 130.181 82.7558C130.459 82.6673 130.699 82.7558 130.788 83.034L130.8 83.0718C130.888 83.3625 130.8 83.5769 130.484 83.6785C130.193 83.767 129.701 83.843 129.283 83.8556C129.599 84.0956 129.991 84.4493 130.18 84.7023C130.345 84.9297 130.319 85.1949 130.105 85.3594L130.054 85.3971C129.814 85.5742 129.574 85.5234 129.384 85.2708C129.208 85.0178 128.993 84.6012 128.828 84.1715C128.651 84.6012 128.437 85.0182 128.26 85.2708C128.07 85.5234 127.83 85.5742 127.59 85.3971L127.54 85.3594C127.312 85.1949 127.3 84.9297 127.464 84.7023C127.653 84.4493 128.045 84.0956 128.362 83.843C127.957 83.843 127.451 83.767 127.161 83.6785Z" fill="#263238"/>
<path d="M131.886 83.6785C131.57 83.5774 131.469 83.3374 131.557 83.0843L131.583 83.0214C131.684 82.7558 131.898 82.6677 132.189 82.7558C132.467 82.8569 132.922 83.0843 133.263 83.3243C133.15 82.9324 133.061 82.4016 133.061 82.0862C133.061 81.7954 133.226 81.5931 133.516 81.5931H133.579C133.87 81.5931 134.034 81.7954 134.034 82.0862C134.034 82.4021 133.946 82.9329 133.832 83.3243C134.186 83.0843 134.628 82.8569 134.906 82.7558C135.184 82.6673 135.424 82.7558 135.513 83.034L135.525 83.0718C135.613 83.3625 135.525 83.5769 135.209 83.6785C134.919 83.767 134.426 83.843 134.009 83.8556C134.324 84.0956 134.716 84.4493 134.906 84.7023C135.071 84.9297 135.045 85.1949 134.831 85.3594L134.78 85.3971C134.54 85.5742 134.3 85.5234 134.11 85.2708C133.933 85.0178 133.719 84.6012 133.554 84.1715C133.377 84.6012 133.162 85.0182 132.986 85.2708C132.796 85.5234 132.556 85.5742 132.316 85.3971L132.265 85.3594C132.038 85.1949 132.025 84.9297 132.19 84.7023C132.379 84.4493 132.771 84.0956 133.087 83.843C132.682 83.843 132.177 83.767 131.886 83.6785Z" fill="#263238"/>
<path d="M69.6307 211.796H71.2407C71.4607 211.796 71.6419 211.624 71.6531 211.405L72.929 198.106H67.9419L69.2183 211.405C69.2295 211.624 69.4107 211.796 69.6307 211.796Z" fill="white" stroke="#263238" stroke-width="0.502" stroke-miterlimit="10" stroke-linecap="round" stroke-linejoin="round"/>
<path d="M54.0971 211.796H55.7071C55.9266 211.796 56.1079 211.624 56.1196 211.405L57.3955 198.106H52.4083L53.6842 211.405C53.6963 211.624 53.8776 211.796 54.0971 211.796Z" fill="white" stroke="#263238" stroke-width="0.502" stroke-miterlimit="10" stroke-linecap="round" stroke-linejoin="round"/>
<path d="M79.4167 211.796H81.0267C81.2467 211.796 81.4279 211.624 81.4391 211.405L82.715 198.106H77.7279L79.0043 211.405C79.0155 211.624 79.1967 211.796 79.4167 211.796Z" fill="white" stroke="#263238" stroke-width="0.502" stroke-miterlimit="10" stroke-linecap="round" stroke-linejoin="round"/>
<path d="M95.5711 211.796H97.1811C97.4006 211.796 97.5819 211.624 97.5935 211.405L98.8695 198.106H93.8823L95.1587 211.405C95.1703 211.624 95.3516 211.796 95.5711 211.796Z" fill="white" stroke="#263238" stroke-width="0.502" stroke-miterlimit="10" stroke-linecap="round" stroke-linejoin="round"/>
<path d="M72.0581 198.651H103.989C103.989 198.651 107.255 187.745 109.795 177.223C112.335 166.7 115.238 153.455 112.154 150.734C109.069 148.012 100.905 152.73 94.7365 153.999C88.568 155.269 87.2977 153.818 83.1251 149.464C78.9521 145.11 75.3238 138.034 68.2481 133.498C61.1723 128.963 55.9107 128.237 51.0121 131.321C51.0121 131.321 46.1135 135.494 45.7505 142.57C45.3875 149.646 47.3834 158.536 49.9236 163.434C52.4637 168.333 72.0581 198.651 72.0581 198.651Z" fill="white" stroke="#263238" stroke-width="0.502" stroke-miterlimit="10" stroke-linecap="round" stroke-linejoin="round"/>
<path d="M67.5719 178.689H102.056C102.056 178.689 108.269 172.476 109.201 157.564" stroke="#263238" stroke-width="0.502" stroke-miterlimit="10" stroke-linecap="round" stroke-linejoin="round"/>
<path d="M91.679 118.386L87.7739 120.772C87.7739 120.772 90.486 135.633 89.835 143.444C89.184 151.254 85.9299 158.739 85.9299 158.739H96.4522C96.4522 158.739 100.357 149.41 102.093 142.901C103.829 136.393 100.792 121.098 100.792 121.098L91.679 118.386Z" fill="#757575" stroke="#263238" stroke-width="0.502" stroke-miterlimit="10" stroke-linecap="round" stroke-linejoin="round"/>
<path d="M134.968 157.996C134.968 157.996 137.212 157.286 137.812 157.289C138.412 157.292 140.365 158.822 140.365 158.822C140.365 158.822 140.443 159.382 140.002 159.5C139.561 159.618 138.046 158.571 138.046 158.571L135.522 159.319L134.968 157.996Z" fill="#D9D9D9" stroke="#263238" stroke-width="0.502" stroke-miterlimit="10" stroke-linecap="round" stroke-linejoin="round"/>
<path d="M135.213 156.568C135.213 156.568 137.539 156.926 138.076 157.194C138.613 157.463 139.686 159.699 139.686 159.699C139.686 159.699 139.507 160.236 139.06 160.147C138.613 160.057 137.718 158.447 137.718 158.447L135.124 158L135.213 156.568Z" fill="#D9D9D9" stroke="#263238" stroke-width="0.502" stroke-miterlimit="10" stroke-linecap="round" stroke-linejoin="round"/>
<path d="M132.765 155.855L135.717 156.571L137.596 157.824L138.669 160.418C138.669 160.418 138.312 160.776 137.864 160.686C137.417 160.597 135.538 158.539 135.538 158.539L132.855 156.84L131.96 155.856H132.765V155.855Z" fill="#D9D9D9" stroke="#263238" stroke-width="0.502" stroke-miterlimit="10" stroke-linecap="round" stroke-linejoin="round"/>
<path d="M126.324 155.05C126.324 155.05 130.887 155.229 131.871 155.229C132.855 155.229 135.449 157.286 135.896 157.465C136.344 157.644 138.222 160.328 138.222 160.328C138.222 160.328 138.312 160.328 137.685 160.507C137.059 160.686 136.075 160.059 136.075 160.059L134.822 158.539L131.781 158.002C131.781 158.002 134.017 159.165 134.554 159.344C135.091 159.523 135.448 160.149 135.27 160.507C135.091 160.865 132.392 159.708 132.392 159.708C132.392 159.708 131.38 160.245 130.307 159.708C129.233 159.171 129.094 159.157 127.953 158.632C126.812 158.107 124.534 156.75 124.534 156.75L126.324 155.05Z" fill="#D9D9D9" stroke="#263238" stroke-width="0.502" stroke-miterlimit="10" stroke-linecap="round" stroke-linejoin="round"/>
<path d="M103.069 123.159C103.069 123.159 104.804 123.484 105.238 124.461C105.672 125.437 108.492 147.566 108.492 147.566L127.129 154.38L126.773 160.908C126.773 160.908 104.696 158.197 103.177 158.522C101.658 158.847 97.9705 159.281 96.4518 158.088C94.9331 156.895 100.696 151.903 101.745 147.312C104.23 136.439 103.92 128.983 103.92 128.983C103.92 128.983 100.899 121.857 103.069 123.159Z" fill="#92E3A9" stroke="#263238" stroke-width="0.502" stroke-miterlimit="10" stroke-linecap="round" stroke-linejoin="round"/>
<path d="M105.455 135.851C105.455 135.851 102.743 146.698 101.55 149.627C100.357 152.556 97.9705 157.437 97.9705 157.437L95.3669 157.871C95.3669 157.871 100.791 146.156 101.767 141.491C102.743 136.827 100.574 125.003 100.465 124.569C100.357 124.135 101.225 121.423 102.852 121.965" fill="#92E3A9"/>
<path d="M105.455 135.851C105.455 135.851 102.743 146.698 101.55 149.627C100.357 152.556 97.9705 157.437 97.9705 157.437L95.3669 157.871C95.3669 157.871 100.791 146.156 101.767 141.491C102.743 136.827 100.574 125.003 100.465 124.569C100.357 124.135 101.225 121.423 102.852 121.965" stroke="#263238" stroke-width="0.502" stroke-miterlimit="10" stroke-linecap="round" stroke-linejoin="round"/>
<path d="M100.574 132.813L97.428 140.732L94.0653 132.271L98.079 129.125L100.574 132.813Z" fill="white" stroke="#263238" stroke-width="0.502" stroke-miterlimit="10" stroke-linecap="round" stroke-linejoin="round"/>
<path d="M101.333 126.413L102.526 135.633L97.428 131.728L101.333 126.413Z" fill="white" stroke="#263238" stroke-width="0.502" stroke-miterlimit="10" stroke-linecap="round" stroke-linejoin="round"/>
<path d="M115.544 110.008C115.544 110.008 115.432 116.132 114.937 116.98C114.441 117.828 113.383 119.138 113.339 120.306C113.294 121.473 114.687 124 113.85 124.815C113.013 125.63 111.862 125.229 111.862 125.229C111.862 125.229 109.133 128.498 107.612 129.247C106.092 129.995 102.026 127.86 102.026 127.86L97.9705 132.055L90.4856 118.495L94.77 115.611C94.77 115.611 96.4238 107.086 101.733 105.292C107.043 103.497 114.718 107.86 115.544 110.008Z" fill="#D9D9D9" stroke="#263238" stroke-width="0.502" stroke-miterlimit="10" stroke-linecap="round" stroke-linejoin="round"/>
<path d="M100.596 117.726C100.596 117.726 98.9546 121.151 100.364 123.321" stroke="#263238" stroke-width="0.502" stroke-miterlimit="10" stroke-linecap="round" stroke-linejoin="round"/>
<path d="M111.06 118.758C110.853 119.223 110.862 119.679 111.081 119.776C111.3 119.874 111.646 119.576 111.853 119.11C112.06 118.645 112.05 118.189 111.831 118.091C111.612 117.994 111.266 118.293 111.06 118.758Z" fill="#263238"/>
<path d="M110.06 125.506C110.06 125.506 108.422 125.179 108.422 123.868" stroke="#263238" stroke-width="0.502" stroke-miterlimit="10" stroke-linecap="round" stroke-linejoin="round"/>
<path d="M113.285 116.958C113.285 116.958 113.228 115.349 110.62 116.01" stroke="#263238" stroke-width="0.502" stroke-miterlimit="10" stroke-linecap="round" stroke-linejoin="round"/>
<path d="M119.119 105.422C117.975 105.549 116.831 106.439 116.45 105.676C116.069 104.913 116.323 102.116 114.416 101.862C112.509 101.608 112.636 102.498 112 102.625C111.365 102.753 110.602 99.8284 108.187 100.21C105.78 100.59 104.257 101.601 104.121 102.111C99.9562 102.077 97.3913 103.772 95.5543 107.174C93.538 110.907 94.7705 115.61 94.7705 115.61C94.7705 115.61 92.8725 117.085 94.3912 117.519C95.9099 117.953 100.597 117.727 100.597 117.727C100.597 117.727 100.597 117.727 100.102 117.506C99.6057 117.286 98.8023 115.623 100.444 113.266C102.085 110.909 103.197 112.947 103.34 113.96C103.483 114.973 103.571 115.843 104.166 116.108C104.761 116.372 105.168 115.722 105.323 114.841C105.477 113.96 107.272 113.927 108.605 113.333C109.938 112.738 108.672 111.581 107.571 109.786C106.469 107.99 109.267 107.572 111.866 109.203C113.365 110.144 114.15 110.645 114.892 110.739L114.925 110.761C114.925 110.761 116.196 111.778 117.214 110.888C118.23 109.998 118.866 109.871 119.756 108.854C120.645 107.838 120.264 105.295 119.119 105.422Z" fill="#263238" stroke="#263238" stroke-width="0.502" stroke-miterlimit="10" stroke-linecap="round" stroke-linejoin="round"/>
<path d="M90.9194 117.735L98.0785 131.62L93.5225 136.393C93.5225 136.393 89.6174 125.871 89.1835 123.268C88.7497 120.664 88.424 118.82 88.424 118.82L90.9194 117.735Z" fill="white" stroke="#263238" stroke-width="0.502" stroke-miterlimit="10" stroke-linecap="round" stroke-linejoin="round"/>
<path d="M95.0658 156.943C95.0658 156.943 116.036 155.856 118.677 156.943C121.317 158.03 121.939 160.826 121.628 163.622C121.317 166.418 119.764 182.883 119.143 187.543C118.521 192.203 118.211 197.95 118.677 199.038C119.143 200.125 120.541 201.989 120.075 203.077C119.609 204.164 118.832 204.63 118.832 205.096C118.832 205.562 119.453 206.339 119.453 206.339C119.453 206.339 125.2 208.824 127.22 209.601C129.239 210.378 129.395 210.999 128.929 211.31C128.463 211.62 118.832 211.31 117.123 211.31C115.415 211.31 112.153 210.222 112.153 210.222V210.999H107.959C107.959 210.999 107.959 209.601 107.959 208.048C107.959 206.495 108.114 205.252 108.114 205.252C108.114 205.252 107.337 203.233 107.493 202.456C107.648 201.679 108.58 199.971 108.891 198.417C109.201 196.864 108.891 194.689 108.735 192.98C108.58 191.272 108.735 190.184 108.891 189.252C109.046 188.32 107.959 171.389 107.959 171.389C107.959 171.389 95.6874 175.117 94.4446 175.272C93.2018 175.428 83.1054 179.156 78.9114 178.068C74.7174 176.981 80.6203 163.778 85.2803 159.273C89.9398 154.768 95.0658 156.943 95.0658 156.943Z" fill="#263238" stroke="#263238" stroke-width="0.502" stroke-miterlimit="10" stroke-linecap="round" stroke-linejoin="round"/>
<path d="M86.5226 155.389C86.5226 155.389 100.347 156.476 101.901 158.03C103.454 159.583 102.988 162.69 102.988 164.709C102.988 166.728 101.124 193.601 100.969 195.154C100.813 196.707 102.522 198.261 101.901 199.348C101.279 200.435 100.969 201.678 100.969 202.144C100.969 202.61 105.163 206.027 106.871 206.959C108.58 207.891 113.395 208.979 114.172 209.755C114.949 210.532 114.793 211.153 113.395 211.619C111.997 212.085 100.347 211.619 100.347 211.619C100.347 211.619 98.6386 211.619 98.0175 211.153C97.3963 210.687 96.9303 210.532 96.9303 210.532L96.7751 211.571H90.7171C90.7171 211.571 90.0959 208.047 90.0959 206.493C90.0959 204.94 90.5619 202.61 90.5619 202.61C90.5619 202.61 89.6299 201.212 89.7851 199.814C89.9403 198.416 91.0279 197.795 91.0279 196.863C91.0279 195.931 90.0959 193.135 90.2511 191.426C90.4063 189.717 90.5619 187.698 90.5619 187.698L89.1639 174.029C89.1639 174.029 79.8439 179.155 75.3391 178.689C70.8343 178.223 69.5919 177.602 68.3491 175.427C67.1063 173.252 67.1063 164.088 69.1259 160.515C71.1446 156.943 82.3286 153.681 86.5226 155.389Z" fill="#263238" stroke="#263238" stroke-width="0.502" stroke-miterlimit="10" stroke-linecap="round" stroke-linejoin="round"/>
<path d="M88.4244 118.82C88.4244 118.82 91.6785 126.955 92.0042 131.837C92.3295 136.718 91.8956 148.108 90.7027 151.362C89.5097 154.616 88.9668 156.678 88.9668 156.678C88.9668 156.678 78.1193 158.305 76.7092 158.847C75.2991 159.39 72.3702 163.62 71.8278 167.2C71.6717 168.232 71.5603 169.344 71.4811 170.406C71.2999 172.837 71.5436 175.27 72.0259 177.66C72.1158 178.105 72.1349 178.476 71.9993 178.612C71.5655 179.046 65.7535 176.421 63.801 169.695C61.8484 162.97 62.8247 155.051 64.5606 151.363C66.2964 147.674 73.0217 125.654 75.9505 122.725C78.8789 119.796 88.4244 118.82 88.4244 118.82Z" fill="#92E3A9" stroke="#263238" stroke-width="0.502" stroke-miterlimit="10" stroke-linecap="round" stroke-linejoin="round"/>
<path d="M125.123 157.901C125.123 157.901 129.222 158.43 130.279 158.694C131.337 158.959 132.053 159.92 132.053 159.92L131.655 160.29L128.691 159.166L125.123 157.901Z" fill="#D9D9D9" stroke="#263238" stroke-width="0.502" stroke-miterlimit="10" stroke-linecap="round" stroke-linejoin="round"/>
<path d="M126.801 158.553C126.801 158.553 129.305 158.706 129.611 159.013C129.918 159.319 131.247 161.567 131.247 161.567L130.633 161.976L128.947 160.392L126.801 159.217L126.801 158.553Z" fill="#D9D9D9" stroke="#263238" stroke-width="0.502" stroke-miterlimit="10" stroke-linecap="round" stroke-linejoin="round"/>
<path d="M122.2 157.628C122.2 157.628 126.846 158.024 127.772 158.553C128.697 159.082 129.868 161.462 129.868 161.462L129.207 161.727L126.959 159.479L121.406 158.554L122.2 157.628Z" fill="#D9D9D9" stroke="#263238" stroke-width="0.502" stroke-miterlimit="10" stroke-linecap="round" stroke-linejoin="round"/>
<path d="M121.998 159.983C121.998 159.983 123.275 160.647 123.94 160.647C124.604 160.647 126.699 159.932 126.699 159.932C126.699 159.932 124.604 159.063 124.195 159.012C123.786 158.961 121.998 159.983 121.998 159.983Z" fill="#D9D9D9" stroke="#263238" stroke-width="0.502" stroke-miterlimit="10" stroke-linecap="round" stroke-linejoin="round"/>
<path d="M116.515 155.513C116.515 155.513 122.068 156.835 122.729 157.231C123.39 157.628 126.562 159.214 126.959 159.479C127.356 159.743 128.546 161.859 128.546 161.859C128.546 161.859 127.752 162.784 127.488 162.123C127.223 161.462 126.033 160.272 126.033 160.272L123.654 159.479C123.654 159.479 122.331 160.14 120.877 160.14C119.423 160.14 117.858 158.707 117.858 158.707L115.192 159.347L116.515 155.513Z" fill="#D9D9D9" stroke="#263238" stroke-width="0.502" stroke-miterlimit="10" stroke-linecap="round" stroke-linejoin="round"/>
<path d="M83.66 124.533C83.66 124.533 86.9551 127.408 87.2277 130.653C87.5003 133.898 87.4579 135.203 87.4849 135.745C87.5124 136.286 89.4417 150.538 89.4417 150.538L117.136 155.024L116.603 161.177L85.0435 160.57C85.0435 160.57 82.8934 161.004 81.728 159.434C80.5625 157.864 73.8223 134.045 73.8223 134.045" fill="#92E3A9"/>
<path d="M83.66 124.533C83.66 124.533 86.9551 127.408 87.2277 130.653C87.5003 133.898 87.4579 135.203 87.4849 135.745C87.5124 136.286 89.4417 150.538 89.4417 150.538L117.136 155.024L116.603 161.177L85.0435 160.57C85.0435 160.57 82.8934 161.004 81.728 159.434C80.5625 157.864 73.8223 134.045 73.8223 134.045" stroke="#263238" stroke-width="0.502" stroke-miterlimit="10" stroke-linecap="round" stroke-linejoin="round"/>
<path d="M84.0133 152.704C83.7141 152.96 83.4322 153.254 83.1777 153.593" stroke="#263238" stroke-width="0.502" stroke-miterlimit="10" stroke-linecap="round" stroke-linejoin="round"/>
<path d="M89.0213 151.016C89.0213 151.016 86.99 150.945 85.1018 151.962" stroke="#263238" stroke-width="0.502" stroke-miterlimit="10" stroke-linecap="round" stroke-linejoin="round"/>
<path d="M87.1256 152.198C87.1256 152.198 84.4554 153.094 83.8986 154.968" stroke="#263238" stroke-width="0.502" stroke-miterlimit="10" stroke-linecap="round" stroke-linejoin="round"/>
<path d="M72.058 198.651C72.058 198.651 71.5138 179.219 66.6152 166.518C61.7166 153.818 58.8139 152.185 56.818 152.73C54.8221 153.274 51.9194 156.721 50.1053 154.363C48.2911 152.004 45.5697 145.473 46.6583 139.667C47.7468 133.861 49.924 132.772 51.0126 131.321C52.1011 129.87 46.2952 133.317 43.7555 137.127C41.2154 140.937 41.2154 150.19 42.667 159.806C44.1186 169.422 47.7468 196.656 49.0171 197.744C50.287 198.833 53.3714 198.833 53.3714 198.833H70.0631L72.058 198.651Z" fill="white" stroke="#263238" stroke-width="0.502" stroke-miterlimit="10" stroke-linecap="round" stroke-linejoin="round"/>
<path d="M162.579 160.558H119.94V162.422H162.579V160.558Z" fill="white" stroke="#263238" stroke-width="0.502" stroke-miterlimit="10" stroke-linecap="round" stroke-linejoin="round"/>
<path d="M162.579 160.558H141.927V162.422H162.579V160.558Z" fill="#B2B2B2" stroke="#263238" stroke-width="0.502" stroke-miterlimit="10" stroke-linecap="round" stroke-linejoin="round"/>
<path d="M167.567 146.569C168.032 145.267 167.066 143.897 165.683 143.897H149.278C148.433 143.897 147.679 144.429 147.395 145.226L141.927 160.557H162.579L167.567 146.569Z" fill="#D9D9D9" stroke="#263238" stroke-width="0.502" stroke-miterlimit="10" stroke-linecap="round" stroke-linejoin="round"/>
<path d="M146.855 211.827H147.147C147.813 211.827 148.353 211.287 148.353 210.621V163.574H145.649V210.621C145.65 211.287 146.189 211.827 146.855 211.827Z" fill="#525252" stroke="#263238" stroke-width="0.502" stroke-miterlimit="10" stroke-linecap="round" stroke-linejoin="round"/>
<path d="M151.771 211.827H152.063C152.729 211.827 153.269 211.287 153.269 210.621V163.574H150.565V210.621C150.565 211.287 151.105 211.827 151.771 211.827Z" fill="#525252" stroke="#263238" stroke-width="0.502" stroke-miterlimit="10" stroke-linecap="round" stroke-linejoin="round"/>
<path d="M113.515 211.827H113.807C114.473 211.827 115.013 211.287 115.013 210.621V163.574H112.309V210.621C112.309 211.287 112.849 211.827 113.515 211.827Z" fill="#525252" stroke="#263238" stroke-width="0.502" stroke-miterlimit="10" stroke-linecap="round" stroke-linejoin="round"/>
<path d="M180.836 211.827H181.128C181.794 211.827 182.334 211.287 182.334 210.621V163.574H179.63V210.621C179.631 211.287 180.17 211.827 180.836 211.827Z" fill="#525252" stroke="#263238" stroke-width="0.502" stroke-miterlimit="10" stroke-linecap="round" stroke-linejoin="round"/>
<path d="M109.159 164.674H184.88V162.475H109.159V164.674Z" fill="white" stroke="#263238" stroke-width="0.502" stroke-miterlimit="10" stroke-linecap="round" stroke-linejoin="round"/>
<path d="M109.159 187.991H184.88V185.792H109.159V187.991Z" fill="white" stroke="#263238" stroke-width="0.502" stroke-miterlimit="10" stroke-linecap="round" stroke-linejoin="round"/>
<path d="M142.436 183.55H122.664V185.755H142.436V183.55Z" fill="white" stroke="#263238" stroke-width="0.502" stroke-miterlimit="10" stroke-linecap="round" stroke-linejoin="round"/>
<path d="M142.436 183.55H133.555V185.755H142.436V183.55Z" fill="white" stroke="#263238" stroke-width="0.502" stroke-miterlimit="10" stroke-linecap="round" stroke-linejoin="round"/>
<path d="M172.456 183.55H152.683V185.755H172.456V183.55Z" fill="white" stroke="#263238" stroke-width="0.502" stroke-miterlimit="10" stroke-linecap="round" stroke-linejoin="round"/>
<path d="M172.456 183.55H163.575V185.755H172.456V183.55Z" fill="white" stroke="#263238" stroke-width="0.502" stroke-miterlimit="10" stroke-linecap="round" stroke-linejoin="round"/>
<path d="M140.802 181.243H121.03V183.447H140.802V181.243Z" fill="white" stroke="#263238" stroke-width="0.502" stroke-miterlimit="10" stroke-linecap="round" stroke-linejoin="round"/>
<path d="M140.802 181.243H131.921V183.447H140.802V181.243Z" fill="white" stroke="#263238" stroke-width="0.502" stroke-miterlimit="10" stroke-linecap="round" stroke-linejoin="round"/>
<path d="M17.8813 211.827H221.989" stroke="#263238" stroke-width="0.502" stroke-miterlimit="10" stroke-linecap="round" stroke-linejoin="round"/>
</svg>
